<svg width="425" height="169" viewBox="0 0 425 169" fill="none" xmlns="http://www.w3.org/2000/svg">
<path d="M95.5434 89.2436C95.5434 92.0051 97.782 94.2436 100.543 94.2436H105.936C108.697 94.2436 110.936 96.4822 110.936 99.2436V116.259C110.936 119.021 108.697 121.259 105.936 121.259H100.543C97.782 121.259 95.5434 123.498 95.5434 126.259V148.367C95.5434 151.128 93.3048 153.367 90.5434 153.367H65.494C62.7326 153.367 60.494 151.128 60.494 148.367V126.259C60.494 123.498 58.2554 121.259 55.494 121.259H6.47733C3.90322 121.259 1.74974 119.305 1.50077 116.743L0.023449 101.541C-0.0828282 100.447 0.174102 99.3491 0.754521 98.4161L58.1151 6.2138C59.8403 3.62982 62.742 2.07814 65.849 2.07814H90.5434C93.3048 2.07814 95.5434 4.31672 95.5434 7.07814V89.2436ZM43.3817 86.7264C41.4395 90.0597 43.844 94.2436 47.7019 94.2436H61.2508C64.0122 94.2436 66.2508 92.0051 66.2508 89.2436V51.8468C66.2508 50.658 64.6918 50.215 64.0667 51.2261L43.3817 86.7264Z" fill="#F3F8FB"/>
<path d="M259.685 91.5421C259.685 111.977 255.074 127.736 245.852 138.82C236.7 149.903 223.769 155.445 207.059 155.445C190.21 155.445 177.175 149.869 167.953 138.716C158.732 127.563 154.121 111.839 154.121 91.5421V63.9028C154.121 43.4678 158.697 27.7085 167.849 16.6251C177.071 5.54171 190.072 0 206.851 0C223.63 0 236.631 5.57634 245.852 16.729C255.074 27.8817 259.685 43.6409 259.685 64.0067V91.5421ZM224.636 59.4348C224.636 48.5592 223.214 40.4545 220.371 35.1206C217.529 29.7174 213.022 27.0158 206.851 27.0158C200.819 27.0158 196.416 29.5096 193.642 34.4971C190.938 39.4847 189.482 47.0352 189.274 57.1488V95.8022C189.274 107.093 190.696 115.371 193.538 120.636C196.381 125.831 200.888 128.429 207.059 128.429C213.022 128.429 217.425 125.901 220.267 120.844C223.11 115.718 224.566 107.717 224.636 96.8413V59.4348Z" fill="#F3F8FB"/>
<path d="M398.344 89.2436C398.344 92.0051 400.583 94.2436 403.344 94.2436H408.737C411.498 94.2436 413.737 96.4822 413.737 99.2436V116.259C413.737 119.021 411.498 121.259 408.737 121.259H403.344C400.583 121.259 398.344 123.498 398.344 126.259V148.367C398.344 151.128 396.106 153.367 393.344 153.367H368.295C365.533 153.367 363.295 151.128 363.295 148.367V126.259C363.295 123.498 361.056 121.259 358.295 121.259H309.278C306.704 121.259 304.551 119.305 304.302 116.743L302.824 101.541C302.718 100.447 302.975 99.349 303.555 98.4161L360.916 6.21379C362.641 3.6298 365.543 2.07812 368.65 2.07812H393.344C396.106 2.07812 398.344 4.3167 398.344 7.07812V89.2436ZM346.183 86.7264C344.24 90.0597 346.645 94.2436 350.503 94.2436H364.052C366.813 94.2436 369.052 92.0051 369.052 89.2436V51.8468C369.052 50.658 367.493 50.215 366.867 51.2261L346.183 86.7264Z" fill="#F3F8FB"/>
<path fill-rule="evenodd" clip-rule="evenodd" d="M241.24 134.982L241.233 134.991L241.226 134.999C233.405 144.47 222.303 149.445 207.059 149.445C191.671 149.445 180.466 144.433 172.577 134.892C164.544 125.177 160.121 110.997 160.121 91.5421V63.9028C160.121 44.2912 164.517 30.0892 172.468 20.455C180.357 10.9784 191.533 6 206.851 6C222.16 6 233.335 11.0063 241.228 20.5524C249.259 30.2649 253.685 44.4762 253.685 64.0067V91.5421C253.685 111.151 249.255 125.349 241.24 134.982ZM193.642 34.4971C190.938 39.4847 189.482 47.0352 189.274 57.1488V95.8022C189.274 107.093 190.696 115.371 193.538 120.636C196.381 125.831 200.888 128.429 207.059 128.429C213.022 128.429 217.425 125.901 220.267 120.844C223.11 115.718 224.566 107.717 224.636 96.8413V59.4348C224.636 48.5592 223.214 40.4545 220.371 35.1206C217.529 29.7174 213.022 27.0158 206.851 27.0158C200.819 27.0158 196.416 29.5096 193.642 34.4971ZM217.944 23.8958C221.28 25.8956 223.825 28.8042 225.674 32.3125C229.211 38.9581 230.636 48.2533 230.636 59.4348V96.8604L230.635 96.8796C230.564 108.036 229.105 117.28 225.515 123.754L225.506 123.769L225.498 123.784C221.556 130.795 215.115 134.429 207.059 134.429C203.118 134.429 199.376 133.593 196.054 131.679C192.72 129.757 190.15 126.943 188.275 123.516L188.267 123.501L188.259 123.487C184.686 116.87 183.274 107.352 183.274 95.8022V57.0872L183.275 57.0255C183.49 46.5946 184.978 37.89 188.368 31.6374L188.383 31.6092L188.399 31.5812C190.251 28.2499 192.788 25.5229 196.068 23.6654C199.33 21.8177 202.998 21.0158 206.851 21.0158C210.831 21.0158 214.607 21.8954 217.944 23.8958ZM100.543 100.244H104.936V115.259H100.543C94.4683 115.259 89.5434 120.184 89.5434 126.259V147.367H66.494V126.259C66.494 120.184 61.5691 115.259 55.494 115.259H7.38486L6.02809 101.298L63.1458 9.48588C63.7622 8.60487 64.7708 8.07814 65.849 8.07814H89.5434V89.2436C89.5434 95.3188 94.4682 100.244 100.543 100.244ZM0.754521 98.4161L58.1151 6.2138C59.8403 3.62982 62.742 2.07814 65.849 2.07814H90.5434C93.3048 2.07814 95.5434 4.31672 95.5434 7.07814V89.2436C95.5434 92.0051 97.782 94.2436 100.543 94.2436H105.936C108.697 94.2436 110.936 96.4822 110.936 99.2436V116.259C110.936 119.021 108.697 121.259 105.936 121.259H100.543C97.782 121.259 95.5434 123.498 95.5434 126.259V148.367C95.5434 151.128 93.3048 153.367 90.5434 153.367H65.494C62.7326 153.367 60.494 151.128 60.494 148.367V126.259C60.494 123.498 58.2554 121.259 55.494 121.259H6.47733C3.90322 121.259 1.74974 119.305 1.50077 116.743L0.023449 101.541C-0.0828282 100.447 0.174102 99.3491 0.754521 98.4161ZM47.7019 100.244H61.2508C67.3259 100.244 72.2508 95.3188 72.2508 89.2436V51.8468C72.2508 44.6146 62.7663 41.9194 58.9632 48.0711L64.0667 51.2261L58.8825 48.2055L38.1976 83.7058C33.9247 91.039 39.2146 100.244 47.7019 100.244ZM43.3817 86.7264L64.0667 51.2261C64.6918 50.215 66.2508 50.658 66.2508 51.8468V89.2436C66.2508 92.0051 64.0122 94.2436 61.2508 94.2436H47.7019C43.844 94.2436 41.4395 90.0597 43.3817 86.7264ZM259.685 91.5421C259.685 111.977 255.074 127.736 245.852 138.82C236.7 149.903 223.769 155.445 207.059 155.445C190.21 155.445 177.175 149.869 167.953 138.716C158.732 127.563 154.121 111.839 154.121 91.5421V63.9028C154.121 43.4678 158.697 27.7085 167.849 16.6251C177.071 5.54171 190.072 0 206.851 0C223.63 0 236.631 5.57634 245.852 16.729C255.074 27.8817 259.685 43.6409 259.685 64.0067V91.5421ZM403.344 100.244H407.737V115.259H403.344C397.269 115.259 392.344 120.184 392.344 126.259V147.367H369.295V126.259C369.295 120.184 364.37 115.259 358.295 115.259H310.186L308.829 101.298L365.947 9.48587C366.563 8.60486 367.572 8.07812 368.65 8.07812H392.344V89.2436C392.344 95.3188 397.269 100.244 403.344 100.244ZM350.503 100.244H364.052C370.127 100.244 375.052 95.3188 375.052 89.2436V51.8468C375.052 44.6146 365.567 41.9194 361.764 48.071L366.867 51.2261L361.683 48.2055L340.998 83.7058C336.725 91.039 342.015 100.244 350.503 100.244ZM346.183 86.7264L366.867 51.2261C367.493 50.215 369.052 50.658 369.052 51.8468V89.2436C369.052 92.0051 366.813 94.2436 364.052 94.2436H350.503C346.645 94.2436 344.24 90.0597 346.183 86.7264ZM398.344 89.2436C398.344 92.0051 400.583 94.2436 403.344 94.2436H408.737C411.498 94.2436 413.737 96.4822 413.737 99.2436V116.259C413.737 119.021 411.498 121.259 408.737 121.259H403.344C400.583 121.259 398.344 123.498 398.344 126.259V148.367C398.344 151.128 396.106 153.367 393.344 153.367H368.295C365.533 153.367 363.295 151.128 363.295 148.367V126.259C363.295 123.498 361.056 121.259 358.295 121.259H309.278C306.704 121.259 304.551 119.305 304.302 116.743L302.824 101.541C302.718 100.447 302.975 99.349 303.555 98.4161L360.916 6.21379C362.641 3.6298 365.543 2.07812 368.65 2.07812H393.344C396.106 2.07812 398.344 4.3167 398.344 7.07812V89.2436Z" fill="#107EFF"/>
<ellipse cx="218.617" cy="92.7412" rx="25.9055" ry="55.3572" fill="white"/>
<path d="M41.5962 116.466L72.5388 64.7031L77.576 56.076V116.466H41.5962Z" fill="white"/>
<path d="M346.705 112.152L377.648 60.3896L382.685 51.7625V112.152H346.705Z" fill="white"/>
<path fill-rule="evenodd" clip-rule="evenodd" d="M256.796 151.76C266.018 140.677 270.629 124.918 270.629 104.483V76.9474C270.629 56.5816 266.018 40.8224 256.796 29.6697C247.574 18.517 234.574 12.9407 217.794 12.9407C201.015 12.9407 188.015 18.4824 178.793 29.5658C169.641 40.6492 165.064 56.4084 165.064 76.8435V104.483C165.064 124.779 169.675 140.504 178.897 151.657C188.119 162.809 201.154 168.386 218.002 168.386C234.712 168.386 247.644 162.844 256.796 151.76ZM231.315 48.0612C234.158 53.3951 235.579 61.4999 235.579 72.3755V109.782C235.51 120.658 234.054 128.658 231.211 133.785C228.368 138.841 223.965 141.37 218.002 141.37C211.832 141.37 207.325 138.772 204.482 133.577C201.639 128.312 200.218 120.034 200.218 108.743V70.0895C200.426 59.9759 201.882 52.4253 204.586 47.4378C207.359 42.4503 211.762 39.9565 217.794 39.9565C223.965 39.9565 228.472 42.6581 231.315 48.0612ZM111.487 107.184C108.726 107.184 106.487 104.946 106.487 102.184V20.0188C106.487 17.2574 104.248 15.0188 101.487 15.0188H76.7926C73.6856 15.0188 70.7839 16.5705 69.0587 19.1545L11.6981 111.357C11.1177 112.29 10.8608 113.388 10.9671 114.482L12.4444 129.684C12.6933 132.246 14.8468 134.2 17.4209 134.2H66.4376C69.199 134.2 71.4376 136.439 71.4376 139.2V161.307C71.4376 164.069 73.6762 166.307 76.4376 166.307H101.487C104.248 166.307 106.487 164.069 106.487 161.307V139.2C106.487 136.439 108.726 134.2 111.487 134.2H116.88C119.641 134.2 121.88 131.962 121.88 129.2V112.184C121.88 109.423 119.641 107.184 116.88 107.184H111.487ZM58.6455 107.184C54.7876 107.184 52.3831 103 54.3253 99.6671L75.0103 64.1668C75.6354 63.1557 77.1944 63.5987 77.1944 64.7874V102.184C77.1944 104.946 74.9558 107.184 72.1944 107.184H58.6455ZM414.288 107.184C411.526 107.184 409.288 104.946 409.288 102.184V20.0188C409.288 17.2573 407.049 15.0188 404.288 15.0188H379.593C376.486 15.0188 373.585 16.5704 371.859 19.1544L314.499 111.357C313.918 112.29 313.662 113.388 313.768 114.482L315.245 129.684C315.494 132.246 317.648 134.2 320.222 134.2H369.238C372 134.2 374.238 136.439 374.238 139.2V161.307C374.238 164.069 376.477 166.307 379.238 166.307H404.288C407.049 166.307 409.288 164.069 409.288 161.307V139.2C409.288 136.439 411.526 134.2 414.288 134.2H419.68C422.442 134.2 424.68 131.962 424.68 129.2V112.184C424.68 109.423 422.442 107.184 419.68 107.184H414.288ZM361.446 107.184C357.588 107.184 355.184 103 357.126 99.6671L377.811 64.1668C378.436 63.1556 379.995 63.5986 379.995 64.7874V102.184C379.995 104.946 377.757 107.184 374.995 107.184H361.446Z" fill="#107EFF"/>
</svg>
