<svg width="28" height="31" viewBox="0 0 28 31" fill="none" xmlns="http://www.w3.org/2000/svg">
<path d="M22.8305 8.96218C22.8305 13.9119 18.8768 17.9244 13.9997 17.9244C9.12262 17.9244 5.16895 13.9119 5.16895 8.96218C5.16895 4.0125 9.12262 0 13.9997 0C18.8768 0 22.8305 4.0125 22.8305 8.96218Z" fill="white"/>
<path fill-rule="evenodd" clip-rule="evenodd" d="M20.285 8.96218C20.285 12.4851 17.471 15.341 13.9997 15.341C10.5284 15.341 7.71437 12.4851 7.71437 8.96218C7.71437 5.43924 10.5284 2.58333 13.9997 2.58333C17.471 2.58333 20.285 5.43924 20.285 8.96218ZM18.923 16.4033C21.2799 14.794 22.8304 12.0619 22.8304 8.96218C22.8304 4.0125 18.8768 0 13.9997 0C9.12258 0 5.16891 4.0125 5.16891 8.96218C5.16891 12.062 6.71956 14.7942 9.07655 16.4035C3.77354 18.4257 0 23.6198 0 29.7083C0 30.4217 0.569819 31 1.27273 31C1.97564 31 2.54545 30.4217 2.54545 29.7083C2.54545 23.288 7.67383 18.0833 14 18.0833C20.3262 18.0833 25.4545 23.288 25.4545 29.7083C25.4545 30.4217 26.0244 31 26.7273 31C27.4302 31 28 30.4217 28 29.7083C28 23.6196 24.2263 18.4254 18.923 16.4033Z" fill="#D8E3EC"/>
</svg>
