<svg class="icon" xmlns="http://www.w3.org/2000/svg">
  <defs>
    <path id="audio" d="M1.73869 2.92125C1.96577 2.92125 2.18608 2.84397 2.36339 2.70212L5.46478 0.221009C6.11954 -0.302802 7.08947 0.163371 7.08947 1.00188V8.84063C7.08947 9.67913 6.11954 10.1453 5.46478 9.6215L2.36339 7.14038C2.18608 6.99853 1.96577 6.92125 1.73869 6.92125H1.08911C0.536827 6.92125 0.0891113 6.47354 0.0891113 5.92125V3.92125C0.0891113 3.36897 0.536826 2.92125 1.08911 2.92125H1.73869Z"/>
    <path id="photo" fill-rule="evenodd" clip-rule="evenodd"
          d="M10.09 7.04a1.5 1.5 0 01-1.5 1.5H1.78a1.5 1.5 0 01-1.5-1.5V2.9a1.5 1.5 0 011.5-1.5h.72a1 1 0 00.67-.26l.66-.6A1 1 0 014.5.3h1.72a1 1 0 01.64.22l.79.66a1 1 0 00.63.23h.3a1.5 1.5 0 011.5 1.5v4.13zM6.79 4.6a1.53 1.53 0 11-3.06 0 1.53 1.53 0 013.06 0z"
    />
    <path id="video" d="M5.86 5.74a1 1 0 000-1.63L1.58 1.05A1 1 0 000 1.86v6.12a1 1 0 001.58.81l4.28-3.05z"/>
    <path id="edit" fill-rule="evenodd" clip-rule="evenodd" d="M16.2971 5.73483L13.3571 2.79483L12.2599 3.89204L15.1999 6.83204L16.2971 5.73483ZM13.7635 8.26844L10.8235 5.32844L4.26675 11.8852L7.20675 14.8252L13.7635 8.26844ZM14.7935 1.35843C14.0432 0.608189 12.792 0.6431 11.9987 1.4364L2.90832 10.5267C2.11502 11.32 2.08011 12.5713 2.83035 13.3216L3.00082 13.492L2.88687 14.5995L2.74016 16.0253C2.72084 16.2131 2.87824 16.3616 3.06531 16.3321L5.46253 15.9538L5.77035 16.2616C6.52058 17.0118 7.77187 16.9769 8.56518 16.1836L17.6555 7.09326C18.4488 6.29995 18.4837 5.04867 17.7335 4.29843L14.7935 1.35843Z" />
    <g id = "calendar">
      <path fill-rule="evenodd" clip-rule="evenodd" d="M13.75 1.27273H1.25L1.25 12.7273H13.75V1.27273ZM1.25 0C0.559644 0 0 0.569819 0 1.27273V12.7273C0 13.4302 0.559644 14 1.25 14H13.75C14.4404 14 15 13.4302 15 12.7273V1.27273C15 0.569819 14.4404 0 13.75 0H1.25Z" fill="#107EFF"/>
      <path d="M2.5 3.18182C1.75 3.18182 1.35417 4.0303 1.25 4.45455H0L0.625 0.636364H14.375L15 4.45455H13.75C13.75 3.69091 13.125 3.18182 12.5 3.18182H2.5Z" fill="#107EFF"/>
      <path d="M5.625 6.36364C5.625 7.06654 5.06536 7.63636 4.375 7.63636C3.68464 7.63636 3.125 7.06654 3.125 6.36364C3.125 5.66073 3.68464 5.09091 4.375 5.09091C5.06536 5.09091 5.625 5.66073 5.625 6.36364Z" fill="#107EFF"/>
      <path d="M8.125 6.36364C8.125 6.71509 7.84518 7 7.5 7C7.15482 7 6.875 6.71509 6.875 6.36364C6.875 6.01218 7.15482 5.72727 7.5 5.72727C7.84518 5.72727 8.125 6.01218 8.125 6.36364Z" fill="#107EFF"/>
      <path d="M11.25 6.36364C11.25 6.71509 10.9702 7 10.625 7C10.2798 7 10 6.71509 10 6.36364C10 6.01218 10.2798 5.72727 10.625 5.72727C10.9702 5.72727 11.25 6.01218 11.25 6.36364Z" fill="#107EFF"/>
      <path d="M8.125 9.54545C8.125 9.89691 7.84518 10.1818 7.5 10.1818C7.15482 10.1818 6.875 9.89691 6.875 9.54545C6.875 9.194 7.15482 8.90909 7.5 8.90909C7.84518 8.90909 8.125 9.194 8.125 9.54545Z" fill="#107EFF"/>
      <path d="M5 9.54545C5 9.89691 4.72018 10.1818 4.375 10.1818C4.02982 10.1818 3.75 9.89691 3.75 9.54545C3.75 9.194 4.02982 8.90909 4.375 8.90909C4.72018 8.90909 5 9.194 5 9.54545Z" fill="#107EFF"/>
      <path d="M11.25 9.54545C11.25 9.89691 10.9702 10.1818 10.625 10.1818C10.2798 10.1818 10 9.89691 10 9.54545C10 9.194 10.2798 8.90909 10.625 8.90909C10.9702 8.90909 11.25 9.194 11.25 9.54545Z" fill="#107EFF"/>
    </g>
    <g id = "search">
      <circle cx="5.78561" cy="5.78561" r="4.78561" fill="#E8F3FF" stroke="#107EFF" stroke-width="2"/>
      <path d="M9 10L12 13" stroke="#107EFF" stroke-width="2" stroke-linecap="round"/>
    </g>
    <path id = "edit" fill-rule="evenodd" clip-rule="evenodd" d="M16.2971 5.73483L13.3571 2.79483L12.2599 3.89204L15.1999 6.83204L16.2971 5.73483ZM13.7635 8.26844L10.8235 5.32844L4.26675 11.8852L7.20675 14.8252L13.7635 8.26844ZM14.7935 1.35843C14.0432 0.608189 12.792 0.6431 11.9987 1.4364L2.90832 10.5267C2.11502 11.32 2.08011 12.5713 2.83035 13.3216L3.00082 13.492L2.88687 14.5995L2.74016 16.0253C2.72084 16.2131 2.87824 16.3616 3.06531 16.3321L5.46253 15.9538L5.77035 16.2616C6.52058 17.0118 7.77187 16.9769 8.56518 16.1836L17.6555 7.09326C18.4488 6.29995 18.4837 5.04867 17.7335 4.29843L14.7935 1.35843Z"/>
    <path id = "del" fill-rule="evenodd" clip-rule="evenodd" d="M5.08888 0C4.96223 0 4.84031 0.0480592 4.74772 0.134472L4.31915 0.534473C4.23631 0.611788 4.18782 0.704455 4.16875 0.799988H2.99231H1.09232C0.539812 0.799988 0.0919189 1.24788 0.0919189 1.80038C0.0919189 2.31914 0.486763 2.74567 0.992314 2.79585L0.99231 2.79999V14C0.99231 15.1046 1.88774 16 2.99231 16H10.1923C11.2969 16 12.1923 15.1046 12.1923 14V2.79999L12.1923 2.79577C12.6975 2.74523 13.0919 2.31887 13.0919 1.80038C13.0919 1.24788 12.644 0.799988 12.0915 0.799988H10.1923H9.07615C9.058 0.709643 9.01347 0.621669 8.93825 0.546447L8.53824 0.146447C8.44448 0.0526784 8.3173 0 8.18469 0H5.08888ZM10.1923 2.80078H2.99231L2.99231 14L10.1923 14L10.1923 2.80078ZM6.09192 5.10986C6.09192 4.55758 5.6442 4.10986 5.09192 4.10986C4.53963 4.10986 4.09192 4.55758 4.09192 5.10986V11.7483C4.09192 12.3005 4.53963 12.7483 5.09192 12.7483C5.6442 12.7483 6.09192 12.3005 6.09192 11.7483V5.10986ZM8.0929 4.10986C8.64518 4.10986 9.0929 4.55758 9.0929 5.10986V11.7483C9.0929 12.3005 8.64518 12.7483 8.0929 12.7483C7.54061 12.7483 7.0929 12.3005 7.0929 11.7483V5.10986C7.0929 4.55758 7.54061 4.10986 8.0929 4.10986Z"/>
    <g id="back">
      <path d="M24 5.5H1.5" stroke="#107EFF" stroke-width="2" stroke-linecap="round"/>
      <path d="M5.5 10L1.35355 5.85355C1.15829 5.65829 1.15829 5.34171 1.35355 5.14645L5.5 1" stroke="#107EFF" stroke-width="2" stroke-linecap="round"/>
    </g>
    <g id = "plus-in-circle">
      <circle cx="7" cy="7" r="7" fill="white"/>
      <path d="M7 4V10" stroke="#107EFF" stroke-width="2" stroke-linecap="round"/>
      <path d="M10 7L4 7" stroke="#107EFF" stroke-width="2" stroke-linecap="round"/>
    </g>
    <g id = "approved">
      <circle cx="9" cy="9" r="9" fill="white"/>
      <path d="M6.85254 9.12134L8.4054 10.6742" stroke="#43DD9C" stroke-width="2" stroke-linecap="round"/>
      <path d="M11.511 7.56848L8.40526 10.6742" stroke="#43DD9C" stroke-width="2" stroke-linecap="round"/>
    </g>
    <g id = "flv">
      <rect width="30" height="16" rx="2.30769" fill="#96AECD"/>
      <path d="M11.1211 8.60156H7.80469V12H5.74805V3.46875H11.4551V5.05664H7.80469V7.01953H11.1211V8.60156ZM14.3672 10.418H17.9473V12H12.3105V3.46875H14.3672V10.418ZM20.918 9.67969L22.6172 3.46875H24.9141L22.043 12H19.793L16.9453 3.46875H19.2246L20.918 9.67969Z" fill="white"/>
    </g>
    <g id = "avi">
      <rect width="30" height="16" rx="2.30769" fill="#96AECD"/>
      <path d="M10.8516 10.4062H8.0332L7.54102 12H5.34375L8.47266 3.46875H10.4062L13.5586 12H11.3496L10.8516 10.4062ZM8.52539 8.81836H10.3594L9.43945 5.85938L8.52539 8.81836ZM17.0391 9.67969L18.7383 3.46875H21.0352L18.1641 12H15.9141L13.0664 3.46875H15.3457L17.0391 9.67969ZM23.8535 12H21.8027V3.46875H23.8535V12Z" fill="white"/>
    </g>
    <g id = "mov">
      <rect width="37" height="16" rx="2.30769" fill="#96AECD"/>
      <path d="M8.53906 3.46875L10.4434 9.4043L12.3418 3.46875H15.0488V12H12.9863V10.0078L13.1855 5.92969L11.123 12H9.76367L7.69531 5.92383L7.89453 10.0078V12H5.83789V3.46875H8.53906ZM23.5859 7.91016C23.5859 8.74219 23.4316 9.47852 23.123 10.1191C22.8145 10.7598 22.375 11.2539 21.8047 11.6016C21.2383 11.9453 20.5918 12.1172 19.8652 12.1172C19.1387 12.1172 18.4941 11.9512 17.9316 11.6191C17.3691 11.2832 16.9297 10.8047 16.6133 10.1836C16.3008 9.5625 16.1367 8.84961 16.1211 8.04492V7.56445C16.1211 6.72852 16.2734 5.99219 16.5781 5.35547C16.8867 4.71484 17.3262 4.2207 17.8965 3.87305C18.4707 3.52539 19.123 3.35156 19.8535 3.35156C20.5762 3.35156 21.2207 3.52344 21.7871 3.86719C22.3535 4.21094 22.793 4.70117 23.1055 5.33789C23.4219 5.9707 23.582 6.69727 23.5859 7.51758V7.91016ZM21.4941 7.55273C21.4941 6.70508 21.3516 6.0625 21.0664 5.625C20.7852 5.18359 20.3809 4.96289 19.8535 4.96289C18.8223 4.96289 18.2773 5.73633 18.2188 7.2832L18.2129 7.91016C18.2129 8.74609 18.3516 9.38867 18.6289 9.83789C18.9062 10.2871 19.3184 10.5117 19.8652 10.5117C20.3848 10.5117 20.7852 10.291 21.0664 9.84961C21.3477 9.4082 21.4902 8.77344 21.4941 7.94531V7.55273ZM27.8281 9.67969L29.5273 3.46875H31.8242L28.9531 12H26.7031L23.8555 3.46875H26.1348L27.8281 9.67969Z" fill="white"/>
    </g>
    <g id = "plus">
      <path fill-rule="evenodd" clip-rule="evenodd" d="M8.05161 1.05155C8.05161 0.470794 7.58081 -4.43251e-08 7.00005 0C6.41928 -4.43251e-08 5.94848 0.470794 5.94848 1.05155V5.94843H1.05132C0.470558 5.94843 -0.00024485 6.41922 -0.000244141 6.99998C-0.00024485 7.58073 0.470558 8.05153 1.05132 8.05152H5.94848V12.9485C5.94848 13.5292 6.41928 14 7.00005 14C7.58081 14 8.05161 13.5292 8.05161 12.9485V8.05153H12.9485C13.5292 8.05153 14 7.58073 14 6.99998C14 6.41922 13.5292 5.94843 12.9485 5.94843H8.05161V1.05155Z"/>
    </g>
    <path id="comment" fill-rule="evenodd" clip-rule="evenodd" d="M2.2553 7.81519L3.17821 8.74927L4.11248 7.80368H9.53906C10.3566 7.80368 11.0232 7.12907 11.0232 6.30174V2.49053C11.0232 1.66319 10.3566 0.98858 9.53906 0.98858H2.46094C1.64343 0.98858 0.976835 1.66319 0.976835 2.49053V6.33713C0.976835 6.99337 1.40117 7.56191 2.01574 7.74415L2.2553 7.81519ZM2.9296 9.89577L1.74106 8.69284C0.710907 8.38737 0 7.43294 0 6.33713V2.49053C0 1.11722 1.10394 0 2.46094 0H9.53906C10.8961 0 12 1.11722 12 2.49053V6.30174C12 7.67505 10.8961 8.79226 9.53906 8.79226H4.51712L3.42682 9.89577C3.3609 9.96248 3.27145 10 3.17825 10C3.08496 10 2.99561 9.96248 2.9296 9.89577ZM3.32922 3.32502C3.32922 3.05203 3.5479 2.83073 3.81764 2.83073H8.18128C8.45102 2.83073 8.66969 3.05203 8.66969 3.32502C8.66969 3.59801 8.45102 3.81931 8.18128 3.81931H3.81764C3.5479 3.81931 3.32922 3.59801 3.32922 3.32502ZM3.81764 5.03877C3.5479 5.03877 3.32922 5.26008 3.32922 5.53306C3.32922 5.80605 3.5479 6.02735 3.81764 6.02735H8.18128C8.45102 6.02735 8.66969 5.80605 8.66969 5.53306C8.66969 5.26008 8.45102 5.03877 8.18128 5.03877H3.81764Z" fill="#107EFF"/>
    <g id='home'>
      <circle cx="9" cy="9" r="9" fill="white"/>
      <path fill-rule="evenodd" clip-rule="evenodd" d="M9.00122 5.46079L12.9497 7.87376V7.95405H5.05273V7.87376L9.00122 5.46079ZM3.55273 7.59334C3.55273 7.24497 3.73403 6.92171 4.03128 6.74006L8.47977 4.02154C8.79989 3.82591 9.20256 3.82591 9.52267 4.02153L13.9712 6.74006C14.2684 6.92171 14.4497 7.24497 14.4497 7.59334V8.45406C14.4497 9.00634 14.002 9.45405 13.4497 9.45405H13.2391V13.2971C13.2391 13.8494 12.7914 14.2971 12.2391 14.2971H5.76367C5.21139 14.2971 4.76367 13.8494 4.76367 13.2971V9.45405H4.55274C4.00045 9.45405 3.55273 9.00634 3.55273 8.45405V7.59334ZM6.26367 12.7971V9.45673H11.7391V12.7971H6.26367Z" fill="#107EFF"/>
    </g>
  </defs>
</svg>
