<svg width="20" height="24" viewBox="0 0 20 24" fill="none" xmlns="http://www.w3.org/2000/svg">
<path fill-rule="evenodd" clip-rule="evenodd" d="M10.9844 1.00524C10.9844 0.450059 10.5367 0 9.98438 0C9.43209 0 8.98438 0.450059 8.98438 1.00524V3.32233C5.60407 3.81433 3 6.72443 3 10.2298V13.0103C3 14.9839 2.133 16.8466 0.611939 18.1281C0.223023 18.4603 0 18.9438 0 19.4546C0 20.4169 0.784973 21.1997 1.74994 21.1997H6.63702C6.92074 22.7953 8.31881 24 9.98447 24C11.6504 24 13.0482 22.7953 13.3319 21.1997H18.2499C19.2151 21.1997 20.0001 20.4169 20.0001 19.4546C20.0001 18.9438 19.777 18.4603 19.3781 18.1212C17.8671 16.8466 17.0001 14.9839 17.0001 13.0103V10.2298C17.0001 6.71366 14.38 3.79646 10.9844 3.31787V1.00524ZM9.98447 21.9895C9.42484 21.9895 8.94669 21.6639 8.72182 21.1997H11.2472C11.0223 21.664 10.5442 21.9895 9.98447 21.9895ZM17.5761 19.1892C15.9341 17.5628 15.0001 15.3469 15.0001 13.0103V10.2298C15.0001 7.50599 12.7705 5.25954 9.99994 5.25954C7.22959 5.25954 5 7.50596 5 10.2298V13.0103C5 15.3457 4.06705 17.5589 2.42162 19.1892H17.5761Z" fill="#107EFF"/>
</svg>
