<svg width="37" height="16" viewBox="0 0 37 16" fill="none" xmlns="http://www.w3.org/2000/svg">
<rect width="37" height="16" rx="2.30769" fill="#96AECD"/>
<path d="M8.53906 3.46875L10.4434 9.4043L12.3418 3.46875H15.0488V12H12.9863V10.0078L13.1855 5.92969L11.123 12H9.76367L7.69531 5.92383L7.89453 10.0078V12H5.83789V3.46875H8.53906ZM23.5859 7.91016C23.5859 8.74219 23.4316 9.47852 23.123 10.1191C22.8145 10.7598 22.375 11.2539 21.8047 11.6016C21.2383 11.9453 20.5918 12.1172 19.8652 12.1172C19.1387 12.1172 18.4941 11.9512 17.9316 11.6191C17.3691 11.2832 16.9297 10.8047 16.6133 10.1836C16.3008 9.5625 16.1367 8.84961 16.1211 8.04492V7.56445C16.1211 6.72852 16.2734 5.99219 16.5781 5.35547C16.8867 4.71484 17.3262 4.2207 17.8965 3.87305C18.4707 3.52539 19.123 3.35156 19.8535 3.35156C20.5762 3.35156 21.2207 3.52344 21.7871 3.86719C22.3535 4.21094 22.793 4.70117 23.1055 5.33789C23.4219 5.9707 23.582 6.69727 23.5859 7.51758V7.91016ZM21.4941 7.55273C21.4941 6.70508 21.3516 6.0625 21.0664 5.625C20.7852 5.18359 20.3809 4.96289 19.8535 4.96289C18.8223 4.96289 18.2773 5.73633 18.2188 7.2832L18.2129 7.91016C18.2129 8.74609 18.3516 9.38867 18.6289 9.83789C18.9062 10.2871 19.3184 10.5117 19.8652 10.5117C20.3848 10.5117 20.7852 10.291 21.0664 9.84961C21.3477 9.4082 21.4902 8.77344 21.4941 7.94531V7.55273ZM27.8281 9.67969L29.5273 3.46875H31.8242L28.9531 12H26.7031L23.8555 3.46875H26.1348L27.8281 9.67969Z" fill="white"/>
</svg>
