<svg width="18" height="18" viewBox="0 0 18 18" fill="none" xmlns="http://www.w3.org/2000/svg">
<circle cx="9" cy="9" r="9" fill="white"/>
<path fill-rule="evenodd" clip-rule="evenodd" d="M6.56876 3.51239C7.98205 3.51239 9.12775 4.65809 9.12775 6.07138V7.04987H12.237C12.7892 7.04987 13.237 7.49758 13.237 8.04987V13.2145C13.237 13.7668 12.7892 14.2145 12.237 14.2145H6.7879C6.23562 14.2145 5.7879 13.7668 5.7879 13.2145V8.04986C5.7879 7.49758 6.23562 7.04987 6.7879 7.04987H7.62775V6.07138C7.62775 5.48652 7.15362 5.01239 6.56876 5.01239C5.98389 5.01239 5.50977 5.48652 5.50977 6.07138C5.50977 6.48559 5.17398 6.82138 4.75977 6.82138C4.34555 6.82138 4.00977 6.48559 4.00977 6.07138C4.00977 4.65809 5.15547 3.51239 6.56876 3.51239ZM7.2879 8.54987V12.7145H11.737V8.54987H7.2879ZM10.4478 10.6323C10.4478 11.1479 10.0299 11.5658 9.51434 11.5658C8.9988 11.5658 8.58087 11.1479 8.58087 10.6323C8.58087 10.1168 8.9988 9.69885 9.51434 9.69885C10.0299 9.69885 10.4478 10.1168 10.4478 10.6323Z" fill="#107EFF"/>
</svg>
