<svg width="30" height="30" viewBox="0 0 30 30" fill="none" xmlns="http://www.w3.org/2000/svg">
<path d="M28.4991 20.0727C30.5002 18.8684 30.5002 15.9771 28.4991 14.7728L12.7529 5.29641C10.6815 4.04977 8.0376 5.53559 8.0376 7.94635V26.8992C8.0376 29.3099 10.6815 30.7957 12.7529 29.5491L28.4991 20.0727Z" fill="#43DD9C"/>
<path d="M20.4615 15.2272C22.4626 14.0229 22.4626 11.1316 20.4615 9.92731L4.71532 0.4509C2.64388 -0.79574 0 0.690083 0 3.10084V22.0537C0 24.4644 2.64388 25.9502 4.71532 24.7036L20.4615 15.2272Z" fill="#107EFF"/>
<mask id="mask0" mask-type="alpha" maskUnits="userSpaceOnUse" x="0" y="0" width="22" height="26">
<path d="M20.4615 15.2272C22.4626 14.0229 22.4626 11.1316 20.4615 9.92731L4.71532 0.4509C2.64388 -0.79574 0 0.690083 0 3.10084V22.0537C0 24.4644 2.64388 25.9502 4.71532 24.7036L20.4615 15.2272Z" fill="#107EFF"/>
</mask>
<g mask="url(#mask0)">
<path d="M28.4991 20.0727C30.5002 18.8684 30.5002 15.9771 28.4991 14.7728L12.7529 5.29641C10.6815 4.04977 8.0376 5.53559 8.0376 7.94635V26.8992C8.0376 29.3099 10.6815 30.7957 12.7529 29.5491L28.4991 20.0727Z" fill="#3E008C"/>
</g>
</svg>
