<svg width="85" height="94" viewBox="0 0 85 94" fill="none" xmlns="http://www.w3.org/2000/svg">
<path d="M69.3087 27.6259C69.3087 42.4313 57.3065 54.4336 42.5011 54.4336C27.6956 54.4336 15.6934 42.4313 15.6934 27.6259C15.6934 12.8204 27.6956 0.818176 42.5011 0.818176C57.3065 0.818176 69.3087 12.8204 69.3087 27.6259Z" fill="white"/>
<path fill-rule="evenodd" clip-rule="evenodd" d="M42.5011 46.7063C53.0389 46.7063 61.5815 38.1637 61.5815 27.6259C61.5815 17.088 53.0389 8.54545 42.5011 8.54545C31.9632 8.54545 23.4206 17.088 23.4206 27.6259C23.4206 38.1637 31.9632 46.7063 42.5011 46.7063ZM42.5011 54.4336C57.3065 54.4336 69.3087 42.4313 69.3087 27.6259C69.3087 12.8204 57.3065 0.818176 42.5011 0.818176C27.6956 0.818176 15.6934 12.8204 15.6934 27.6259C15.6934 42.4313 27.6956 54.4336 42.5011 54.4336Z" fill="#D8E3EC"/>
<path fill-rule="evenodd" clip-rule="evenodd" d="M42.5 54.9091C23.2956 54.9091 7.72727 70.4774 7.72727 89.6818C7.72727 91.8157 5.99746 93.5455 3.86364 93.5455C1.72981 93.5455 0 91.8157 0 89.6818C0 66.2097 19.0279 47.1818 42.5 47.1818C65.9721 47.1818 85 66.2097 85 89.6818C85 91.8157 83.2702 93.5455 81.1364 93.5455C79.0025 93.5455 77.2727 91.8157 77.2727 89.6818C77.2727 70.4774 61.7044 54.9091 42.5 54.9091Z" fill="#D8E3EC"/>
</svg>
