<svg xmlns="http://www.w3.org/2000/svg">
  <defs>
    <g id='zip'>
      <path d="M17.4167 21.0833H4.58333C4.07707 21.0833 3.66667 20.6729 3.66667 20.1667V1.83333C3.66667 1.32707 4.07707 0.916667 4.58333 0.916667H13.603C13.8275 0.916667 14.0442 0.999056 14.212 1.14821L14.8085 0.477065L14.212 1.14821L18.0257 4.53816C18.2214 4.71212 18.3333 4.96145 18.3333 5.22329V20.1667C18.3333 20.6729 17.9229 21.0833 17.4167 21.0833Z" stroke="#96AECD" stroke-width="1.83333"/>
      <rect y="6.41669" width="22" height="11.9167" rx="1.83333" fill="#96AECD"/>
      <path d="M6.61353 14.001H9.41724V15.0886H4.84912V14.3434L7.64478 10.3151H4.83301V9.22339H9.38904V9.94849L6.61353 14.001Z" fill="white"/>
      <path d="M11.5684 15.0886H10.1584V9.22339H11.5684V15.0886Z" fill="white"/>
      <path d="M13.9652 13.0986V15.0886H12.5513V9.22339H14.8917C15.3402 9.22339 15.7363 9.30664 16.0801 9.47314C16.4265 9.63696 16.6937 9.87195 16.8817 10.1781C17.0724 10.4816 17.1677 10.8267 17.1677 11.2134C17.1677 11.7854 16.9623 12.2433 16.5514 12.587C16.1432 12.9281 15.5819 13.0986 14.8676 13.0986H13.9652ZM13.9652 12.007H14.8917C15.1656 12.007 15.3738 11.9385 15.5161 11.8015C15.6611 11.6646 15.7336 11.4712 15.7336 11.2214C15.7336 10.9475 15.6598 10.7286 15.5121 10.5648C15.3644 10.401 15.163 10.3177 14.9078 10.3151H13.9652V12.007Z" fill="white"/>
    </g>
    <g id='rar'>
      <path d="M17.4167 21.0833H4.58333C4.07707 21.0833 3.66667 20.6729 3.66667 20.1667V1.83333C3.66667 1.32707 4.07707 0.916667 4.58333 0.916667H13.603C13.8275 0.916667 14.0442 0.999056 14.212 1.14821L14.8085 0.477065L14.212 1.14821L18.0257 4.53816C18.2214 4.71212 18.3333 4.96145 18.3333 5.22329V20.1667C18.3333 20.6729 17.9229 21.0833 17.4167 21.0833Z" stroke="#96AECD" stroke-width="1.83333"/>
      <rect y="6.41669" width="22" height="11.9167" rx="1.83333" fill="#96AECD"/>
      <path d="M5.42883 13.2628H4.66345V15.3333H3.24951V9.46808H5.55774C6.2533 9.46808 6.79712 9.6225 7.18921 9.93134C7.5813 10.2402 7.77734 10.6766 7.77734 11.2405C7.77734 11.6487 7.69409 11.9871 7.52759 12.2557C7.36377 12.5242 7.10596 12.7418 6.75415 12.9083L7.97876 15.2729V15.3333H6.46411L5.42883 13.2628ZM4.66345 12.1711H5.55774C5.82629 12.1711 6.02771 12.1013 6.16199 11.9616C6.29895 11.8193 6.36743 11.6219 6.36743 11.3694C6.36743 11.117 6.29895 10.9196 6.16199 10.7773C6.02502 10.6323 5.82361 10.5598 5.55774 10.5598H4.66345V12.1711Z" fill="white"/>
      <path d="M11.9628 14.2376H10.0251L9.68677 15.3333H8.17615L10.3273 9.46808H11.6566L13.8239 15.3333H12.3052L11.9628 14.2376ZM10.3635 13.1459H11.6244L10.9919 11.1116L10.3635 13.1459Z" fill="white"/>
      <path d="M16.4342 13.2628H15.6688V15.3333H14.2549V9.46808H16.5631C17.2587 9.46808 17.8025 9.6225 18.1946 9.93134C18.5867 10.2402 18.7827 10.6766 18.7827 11.2405C18.7827 11.6487 18.6995 11.9871 18.533 12.2557C18.3691 12.5242 18.1113 12.7418 17.7595 12.9083L18.9841 15.2729V15.3333H17.4695L16.4342 13.2628ZM15.6688 12.1711H16.5631C16.8317 12.1711 17.0331 12.1013 17.1674 11.9616C17.3043 11.8193 17.3728 11.6219 17.3728 11.3694C17.3728 11.117 17.3043 10.9196 17.1674 10.7773C17.0304 10.6323 16.829 10.5598 16.5631 10.5598H15.6688V12.1711Z" fill="white"/>
    </g>
    <g id='xls'>
      <path d="M17.4167 21.0833H4.58333C4.07707 21.0833 3.66667 20.6729 3.66667 20.1667V1.83333C3.66667 1.32707 4.07707 0.916667 4.58333 0.916667H13.603C13.8275 0.916667 14.0442 0.999056 14.212 1.14821L14.8085 0.477065L14.212 1.14821L18.0257 4.53816C18.2214 4.71212 18.3333 4.96145 18.3333 5.22329V20.1667C18.3333 20.6729 17.9229 21.0833 17.4167 21.0833Z" stroke="#96AECD" stroke-width="1.83333"/>
      <rect y="6.41669" width="22" height="11.9167" rx="1.83333" fill="#96AECD"/>
      <path d="M6.1781 11.4178L7.13684 9.46808H8.7522L7.11267 12.3765L8.79651 15.3333H7.16504L6.1781 13.3474L5.19116 15.3333H3.56372L5.24353 12.3765L3.60803 9.46808H5.21936L6.1781 11.4178Z" fill="white"/>
      <path d="M10.6737 14.2457H13.135V15.3333H9.25977V9.46808H10.6737V14.2457Z" fill="white"/>
      <path d="M16.7565 13.7744C16.7565 13.5676 16.6826 13.4064 16.5349 13.291C16.3899 13.1755 16.1334 13.056 15.7655 12.9324C15.3976 12.8089 15.0968 12.6894 14.8632 12.5739C14.1031 12.2006 13.7231 11.6877 13.7231 11.0351C13.7231 10.7101 13.8171 10.4241 14.0051 10.1771C14.1958 9.92731 14.4644 9.73395 14.8108 9.59698C15.1572 9.45734 15.5466 9.38751 15.979 9.38751C16.4006 9.38751 16.778 9.46271 17.111 9.6131C17.4467 9.76349 17.7072 9.97833 17.8925 10.2576C18.0778 10.5342 18.1704 10.8511 18.1704 11.2083H16.7605C16.7605 10.9693 16.6866 10.784 16.5389 10.6524C16.3939 10.5208 16.1965 10.455 15.9468 10.455C15.6943 10.455 15.4943 10.5114 15.3466 10.6242C15.2015 10.7343 15.129 10.8753 15.129 11.0472C15.129 11.1976 15.2096 11.3345 15.3707 11.4581C15.5319 11.5789 15.8152 11.7051 16.2207 11.8367C16.6262 11.9656 16.9592 12.1053 17.2197 12.2557C17.8535 12.6209 18.1704 13.1245 18.1704 13.7663C18.1704 14.2792 17.9771 14.6821 17.5903 14.9748C17.2036 15.2675 16.6732 15.4139 15.9991 15.4139C15.5238 15.4139 15.0928 15.3293 14.7061 15.1601C14.322 14.9882 14.032 14.7546 13.8359 14.4592C13.6426 14.1611 13.5459 13.8187 13.5459 13.4319H14.9639C14.9639 13.7462 15.0444 13.9785 15.2056 14.1288C15.3694 14.2766 15.6339 14.3504 15.9991 14.3504C16.2328 14.3504 16.4167 14.3007 16.551 14.2014C16.688 14.0993 16.7565 13.957 16.7565 13.7744Z" fill="white"/>
    </g>
    <g id='wav'>
      <path d="M17.4167 21.0833H4.58333C4.07707 21.0833 3.66667 20.6729 3.66667 20.1667V1.83333C3.66667 1.32707 4.07707 0.916667 4.58333 0.916667H13.603C13.8275 0.916667 14.0442 0.999056 14.212 1.14821L14.8085 0.477065L14.212 1.14821L18.0257 4.53816C18.2214 4.71212 18.3333 4.96145 18.3333 5.22329V20.1667C18.3333 20.6729 17.9229 21.0833 17.4167 21.0833Z" stroke="#96AECD" stroke-width="1.83333"/>
      <rect y="6.41669" width="22" height="11.9167" rx="1.83333" fill="#96AECD"/>
      <path d="M6.85864 13.1459L7.53137 9.46808H8.93323L7.68848 15.3333H6.22217L5.43665 11.9898L4.66724 15.3333H3.20496L1.95618 9.46808H3.36206L4.03479 13.1459L4.84045 9.46808H6.04089L6.85864 13.1459Z" fill="white"/>
      <path d="M12.6393 14.2376H10.7017L10.3633 15.3333H8.85266L11.0038 9.46808H12.3331L14.5004 15.3333H12.9817L12.6393 14.2376ZM11.04 13.1459H12.3009L11.6685 11.1116L11.04 13.1459Z" fill="white"/>
      <path d="M16.8932 13.7381L18.0614 9.46808H19.6405L17.6666 15.3333H16.1198L14.162 9.46808H15.729L16.8932 13.7381Z" fill="white"/>
    </g>
    <g id='mp3'>
      <path d="M17.4167 21.0833H4.58333C4.07707 21.0833 3.66667 20.6729 3.66667 20.1667V1.83333C3.66667 1.32707 4.07707 0.916667 4.58333 0.916667H13.603C13.8275 0.916667 14.0442 0.999056 14.212 1.14821L14.8085 0.477065L14.212 1.14821L18.0257 4.53816C18.2214 4.71212 18.3333 4.96145 18.3333 5.22329V20.1667C18.3333 20.6729 17.9229 21.0833 17.4167 21.0833Z" stroke="#96AECD" stroke-width="1.83333"/>
      <rect y="6.41669" width="22" height="11.9167" rx="1.83333" fill="#96AECD"/>
      <path d="M4.35706 9.46808L5.66626 13.5488L6.97144 9.46808H8.83252V15.3333H7.41455V13.9637L7.55151 11.16L6.13354 15.3333H5.19897L3.77698 11.1559L3.91394 13.9637V15.3333H2.5V9.46808H4.35706Z" fill="white"/>
      <path d="M11.1488 13.3433V15.3333H9.73486V9.46808H12.0753C12.5238 9.46808 12.9199 9.55133 13.2637 9.71783C13.6101 9.88165 13.8773 10.1166 14.0653 10.4228C14.256 10.7263 14.3513 11.0714 14.3513 11.4581C14.3513 12.0301 14.1459 12.488 13.735 12.8317C13.3268 13.1728 12.7655 13.3433 12.0511 13.3433H11.1488ZM11.1488 12.2516H12.0753C12.3492 12.2516 12.5574 12.1832 12.6997 12.0462C12.8447 11.9092 12.9172 11.7159 12.9172 11.4661C12.9172 11.1922 12.8434 10.9733 12.6957 10.8095C12.548 10.6457 12.3466 10.5624 12.0914 10.5598H11.1488V12.2516Z" fill="white"/>
      <path d="M16.2648 11.8327H16.9053C17.4128 11.8327 17.6666 11.5843 17.6666 11.0875C17.6666 10.8941 17.6062 10.737 17.4854 10.6161C17.3645 10.4926 17.194 10.4308 16.9738 10.4308C16.7938 10.4308 16.6367 10.4832 16.5024 10.588C16.3708 10.6927 16.3051 10.8229 16.3051 10.9787H14.9475C14.9475 10.6699 15.0334 10.3946 15.2053 10.1529C15.3772 9.91119 15.6149 9.72321 15.9183 9.58893C16.2245 9.45197 16.5602 9.38348 16.9254 9.38348C17.578 9.38348 18.0909 9.53253 18.4642 9.83063C18.8375 10.1287 19.0242 10.5383 19.0242 11.0593C19.0242 11.3117 18.9463 11.5507 18.7905 11.7763C18.6375 11.9992 18.4132 12.1805 18.1178 12.3201C18.4293 12.4329 18.6737 12.6048 18.851 12.8358C19.0282 13.064 19.1168 13.3474 19.1168 13.6857C19.1168 14.2094 18.9154 14.6284 18.5126 14.9426C18.1097 15.2568 17.5807 15.4139 16.9254 15.4139C16.5414 15.4139 16.1842 15.3414 15.8539 15.1964C15.5262 15.0486 15.2778 14.8459 15.1086 14.5881C14.9395 14.3276 14.8549 14.0322 14.8549 13.7018H16.2205C16.2205 13.8818 16.293 14.0375 16.438 14.1691C16.583 14.3007 16.7616 14.3665 16.9738 14.3665C17.2128 14.3665 17.4034 14.3007 17.5458 14.1691C17.6881 14.0349 17.7593 13.8643 17.7593 13.6575C17.7593 13.3621 17.6854 13.1526 17.5377 13.0291C17.39 12.9056 17.1859 12.8438 16.9254 12.8438H16.2648V11.8327Z" fill="white"/>
    </g>
    <g id='avi'>
      <path d="M17.4167 21.0833H4.58333C4.07707 21.0833 3.66667 20.6729 3.66667 20.1667V1.83333C3.66667 1.32707 4.07707 0.916667 4.58333 0.916667H13.603C13.8275 0.916667 14.0442 0.999056 14.212 1.14821L14.8085 0.477065L14.212 1.14821L18.0257 4.53816C18.2214 4.71212 18.3333 4.96145 18.3333 5.22329V20.1667C18.3333 20.6729 17.9229 21.0833 17.4167 21.0833Z" stroke="#96AECD" stroke-width="1.83333"/>
      <rect y="6.41669" width="22" height="11.9167" rx="1.83333" fill="#96AECD"/>
      <path d="M7.89795 14.2376H5.96033L5.62195 15.3333H4.11133L6.26245 9.46808H7.5918L9.75903 15.3333H8.24036L7.89795 14.2376ZM6.29871 13.1459H7.55957L6.92712 11.1116L6.29871 13.1459Z" fill="white"/>
      <path d="M12.1519 13.7381L13.3201 9.46808H14.8992L12.9253 15.3333H11.3784L9.42065 9.46808H10.9877L12.1519 13.7381Z" fill="white"/>
      <path d="M16.8368 15.3333H15.4269V9.46808H16.8368V15.3333Z" fill="white"/>
    </g>
    <g id='mov'>
      <path d="M17.4167 21.0833H4.58333C4.07707 21.0833 3.66667 20.6729 3.66667 20.1667V1.83333C3.66667 1.32707 4.07707 0.916667 4.58333 0.916667H13.603C13.8275 0.916667 14.0442 0.999056 14.212 1.14821L14.8085 0.477065L14.212 1.14821L18.0257 4.53816C18.2214 4.71212 18.3333 4.96145 18.3333 5.22329V20.1667C18.3333 20.6729 17.9229 21.0833 17.4167 21.0833Z" stroke="#96AECD" stroke-width="1.83333"/>
      <rect y="6.41669" width="22" height="11.9167" rx="1.83333" fill="#96AECD"/>
      <path d="M4.40186 9.46808L5.71106 13.5488L7.01624 9.46808H8.87732V15.3333H7.45935V13.9637L7.59631 11.16L6.17834 15.3333H5.24377L3.82178 11.1559L3.95874 13.9637V15.3333H2.5448V9.46808H4.40186Z" fill="white"/>
      <path d="M14.7466 12.5215C14.7466 13.0936 14.6405 13.5998 14.4283 14.0402C14.2162 14.4807 13.9141 14.8204 13.522 15.0594C13.1326 15.2957 12.6881 15.4139 12.1886 15.4139C11.6891 15.4139 11.246 15.2997 10.8593 15.0715C10.4725 14.8405 10.1704 14.5115 9.95288 14.0845C9.73804 13.6575 9.62524 13.1674 9.6145 12.6142V12.2839C9.6145 11.7092 9.71924 11.2029 9.92871 10.7652C10.1409 10.3248 10.443 9.98505 10.8351 9.74603C11.2299 9.50702 11.6783 9.38751 12.1805 9.38751C12.6774 9.38751 13.1205 9.50568 13.5099 9.742C13.8993 9.97833 14.2014 10.3154 14.4163 10.7531C14.6338 11.1882 14.7439 11.6877 14.7466 12.2516V12.5215ZM13.3085 12.2758C13.3085 11.6931 13.2104 11.2513 13.0144 10.9505C12.821 10.647 12.5431 10.4953 12.1805 10.4953C11.4716 10.4953 11.0969 11.027 11.0566 12.0905L11.0526 12.5215C11.0526 13.0963 11.1479 13.538 11.3386 13.8469C11.5293 14.1557 11.8126 14.3101 12.1886 14.3101C12.5458 14.3101 12.821 14.1584 13.0144 13.8549C13.2078 13.5515 13.3058 13.1151 13.3085 12.5457V12.2758Z" fill="white"/>
      <path d="M17.6631 13.7381L18.8313 9.46808H20.4104L18.4365 15.3333H16.8896L14.9319 9.46808H16.4989L17.6631 13.7381Z" fill="white"/>
    </g>
    <g id='rtf'>
      <path d="M17.4167 21.0833H4.58333C4.07707 21.0833 3.66667 20.6729 3.66667 20.1667V1.83333C3.66667 1.32707 4.07707 0.916667 4.58333 0.916667H13.603C13.8275 0.916667 14.0442 0.999056 14.212 1.14821L14.8085 0.477065L14.212 1.14821L18.0257 4.53816C18.2214 4.71212 18.3333 4.96145 18.3333 5.22329V20.1667C18.3333 20.6729 17.9229 21.0833 17.4167 21.0833Z" stroke="#96AECD" stroke-width="1.83333"/>
      <rect y="6.41669" width="22" height="11.9167" rx="1.83333" fill="#96AECD"/>
      <path d="M6.42407 13.2628H5.65869V15.3333H4.24475V9.46808H6.55298C7.24854 9.46808 7.79236 9.6225 8.18445 9.93134C8.57654 10.2402 8.77258 10.6766 8.77258 11.2405C8.77258 11.6487 8.68933 11.9871 8.52283 12.2557C8.35901 12.5242 8.1012 12.7418 7.74939 12.9083L8.974 15.2729V15.3333H7.45935L6.42407 13.2628ZM5.65869 12.1711H6.55298C6.82153 12.1711 7.02295 12.1013 7.15723 11.9616C7.29419 11.8193 7.36267 11.6219 7.36267 11.3694C7.36267 11.117 7.29419 10.9196 7.15723 10.7773C7.02026 10.6323 6.81885 10.5598 6.55298 10.5598H5.65869V12.1711Z" fill="white"/>
      <path d="M14.0295 10.5598H12.2692V15.3333H10.8552V10.5598H9.12708V9.46808H14.0295V10.5598Z" fill="white"/>
      <path d="M18.3237 12.9969H16.0437V15.3333H14.6298V9.46808H18.5533V10.5598H16.0437V11.9092H18.3237V12.9969Z" fill="white"/>
    </g>
    <g id='txt'>
      <path d="M17.4167 21.0833H4.58333C4.07707 21.0833 3.66667 20.6729 3.66667 20.1667V1.83333C3.66667 1.32707 4.07707 0.916667 4.58333 0.916667H13.603C13.8275 0.916667 14.0442 0.999056 14.212 1.14821L14.8085 0.477065L14.212 1.14821L18.0257 4.53816C18.2214 4.71212 18.3333 4.96145 18.3333 5.22329V20.1667C18.3333 20.6729 17.9229 21.0833 17.4167 21.0833Z" stroke="#96AECD" stroke-width="1.83333"/>
      <rect y="6.41669" width="22" height="11.9167" rx="1.83333" fill="#96AECD"/>
      <path d="M7.95837 10.5598H6.198V15.3333H4.78406V10.5598H3.05591V9.46808H7.95837V10.5598Z" fill="white"/>
      <path d="M10.746 11.4178L11.7047 9.46808H13.3201L11.6805 12.3765L13.3644 15.3333H11.7329L10.746 13.3474L9.75903 15.3333H8.13159L9.8114 12.3765L8.1759 9.46808H9.78723L10.746 11.4178Z" fill="white"/>
      <path d="M18.432 10.5598H16.6716V15.3333H15.2577V10.5598H13.5295V9.46808H18.432V10.5598Z" fill="white"/>
    </g>
    <g id='rrt'>
      <path d="M17.4167 21.0833H4.58333C4.07707 21.0833 3.66667 20.6729 3.66667 20.1667V1.83333C3.66667 1.32707 4.07707 0.916667 4.58333 0.916667H13.603C13.8275 0.916667 14.0442 0.999056 14.212 1.14821L14.8085 0.477065L14.212 1.14821L18.0257 4.53816C18.2214 4.71212 18.3333 4.96145 18.3333 5.22329V20.1667C18.3333 20.6729 17.9229 21.0833 17.4167 21.0833Z" stroke="#96AECD" stroke-width="1.83333"/>
      <rect y="6.41669" width="22" height="11.9167" rx="1.83333" fill="#96AECD"/>
      <path d="M4.63098 13.3433V15.3333H3.21704V9.46808H5.5575C6.00598 9.46808 6.4021 9.55133 6.74585 9.71783C7.09229 9.88165 7.3595 10.1166 7.54749 10.4228C7.73816 10.7263 7.8335 11.0714 7.8335 11.4581C7.8335 12.0301 7.62805 12.488 7.21716 12.8317C6.80896 13.1728 6.24768 13.3433 5.53333 13.3433H4.63098ZM4.63098 12.2516H5.5575C5.83142 12.2516 6.03955 12.1832 6.18188 12.0462C6.3269 11.9092 6.39941 11.7159 6.39941 11.4661C6.39941 11.1922 6.32556 10.9733 6.17786 10.8095C6.03015 10.6457 5.82874 10.5624 5.57361 10.5598H4.63098V12.2516Z" fill="white"/>
      <path d="M10.0048 13.3433V15.3333H8.59082V9.46808H10.9313C11.3798 9.46808 11.7759 9.55133 12.1196 9.71783C12.4661 9.88165 12.7333 10.1166 12.9213 10.4228C13.1119 10.7263 13.2073 11.0714 13.2073 11.4581C13.2073 12.0301 13.0018 12.488 12.5909 12.8317C12.1827 13.1728 11.6215 13.3433 10.9071 13.3433H10.0048ZM10.0048 12.2516H10.9313C11.2052 12.2516 11.4133 12.1832 11.5557 12.0462C11.7007 11.9092 11.7732 11.7159 11.7732 11.4661C11.7732 11.1922 11.6993 10.9733 11.5516 10.8095C11.4039 10.6457 11.2025 10.5624 10.9474 10.5598H10.0048V12.2516Z" fill="white"/>
      <path d="M18.569 10.5598H16.8086V15.3333H15.3947V10.5598H13.6665V9.46808H18.569V10.5598Z" fill="white"/>
    </g>
    <g id='png'>
      <path d="M17.4167 21.0833H4.58333C4.07707 21.0833 3.66667 20.6729 3.66667 20.1667V1.83333C3.66667 1.32707 4.07707 0.916667 4.58333 0.916667H13.603C13.8275 0.916667 14.0442 0.999056 14.212 1.14821L14.8085 0.477065L14.212 1.14821L18.0257 4.53816C18.2214 4.71212 18.3333 4.96145 18.3333 5.22329V20.1667C18.3333 20.6729 17.9229 21.0833 17.4167 21.0833Z" stroke="#96AECD" stroke-width="1.83333"/>
      <rect y="6.41669" width="22" height="11.9167" rx="1.83333" fill="#96AECD"/>
      <path d="M4.71204 13.3433V15.3333H3.2981V9.46808H5.63855C6.08704 9.46808 6.48315 9.55133 6.8269 9.71783C7.17334 9.88165 7.44055 10.1166 7.62854 10.4228C7.81921 10.7263 7.91455 11.0714 7.91455 11.4581C7.91455 12.0301 7.70911 12.488 7.29822 12.8317C6.89001 13.1728 6.32874 13.3433 5.61438 13.3433H4.71204ZM4.71204 12.2516H5.63855C5.91248 12.2516 6.12061 12.1832 6.26294 12.0462C6.40796 11.9092 6.48047 11.7159 6.48047 11.4661C6.48047 11.1922 6.40662 10.9733 6.25891 10.8095C6.11121 10.6457 5.90979 10.5624 5.65466 10.5598H4.71204V12.2516Z" fill="white"/>
      <path d="M13.5703 15.3333H12.1644L10.0858 11.6837V15.3333H8.67188V9.46808H10.0858L12.1604 13.1177V9.46808H13.5703V15.3333Z" fill="white"/>
      <path d="M19.2664 14.6082C19.0488 14.8499 18.7306 15.0446 18.3116 15.1923C17.8927 15.34 17.4335 15.4139 16.934 15.4139C16.1659 15.4139 15.5522 15.1789 15.093 14.7089C14.6338 14.239 14.3881 13.585 14.3558 12.7471L14.3518 12.2396C14.3518 11.6622 14.4539 11.1586 14.658 10.7289C14.8621 10.2966 15.1534 9.9649 15.5321 9.73395C15.9135 9.50031 16.3539 9.38348 16.8534 9.38348C17.5839 9.38348 18.1505 9.55133 18.5533 9.88702C18.9589 10.22 19.1952 10.7182 19.2623 11.3815H17.9008C17.8524 11.0539 17.7477 10.8203 17.5865 10.6806C17.4254 10.541 17.1971 10.4711 16.9017 10.4711C16.5472 10.4711 16.2733 10.6215 16.08 10.9223C15.8866 11.2231 15.7886 11.6528 15.7859 12.2114V12.5659C15.7859 13.1513 15.8853 13.5917 16.084 13.8871C16.2854 14.1799 16.601 14.3262 17.0306 14.3262C17.3986 14.3262 17.6725 14.2443 17.8524 14.0805V13.1701H16.8695V12.1993H19.2664V14.6082Z" fill="white"/>
    </g>
    <g id='jpg'>
      <path d="M17.4167 21.0833H4.58333C4.07707 21.0833 3.66667 20.6729 3.66667 20.1667V1.83333C3.66667 1.32707 4.07707 0.916667 4.58333 0.916667H13.603C13.8275 0.916667 14.0442 0.999056 14.212 1.14821L14.8085 0.477065L14.212 1.14821L18.0257 4.53816C18.2214 4.71212 18.3333 4.96145 18.3333 5.22329V20.1667C18.3333 20.6729 17.9229 21.0833 17.4167 21.0833Z" stroke="#96AECD" stroke-width="1.83333"/>
      <rect y="6.41669" width="22" height="11.9167" rx="1.83333" fill="#96AECD"/>
      <path d="M5.96057 9.46808H7.37048V13.4924C7.37048 13.8657 7.2832 14.1987 7.10864 14.4914C6.93677 14.7841 6.69507 15.011 6.38354 15.1722C6.07471 15.3333 5.72961 15.4139 5.34827 15.4139C4.70911 15.4139 4.21228 15.2527 3.85779 14.9305C3.5033 14.6082 3.32605 14.1517 3.32605 13.5609H4.74402C4.74402 13.8294 4.78967 14.0241 4.88098 14.145C4.97498 14.2658 5.13074 14.3262 5.34827 14.3262C5.54431 14.3262 5.6947 14.2537 5.79944 14.1087C5.90686 13.961 5.96057 13.7556 5.96057 13.4924V9.46808Z" fill="white"/>
      <path d="M9.67871 13.3433V15.3333H8.26477V9.46808H10.6052C11.0537 9.46808 11.4498 9.55133 11.7936 9.71783C12.14 9.88165 12.4072 10.1166 12.5952 10.4228C12.7859 10.7263 12.8812 11.0714 12.8812 11.4581C12.8812 12.0301 12.6758 12.488 12.2649 12.8317C11.8567 13.1728 11.2954 13.3433 10.5811 13.3433H9.67871ZM9.67871 12.2516H10.6052C10.8792 12.2516 11.0873 12.1832 11.2296 12.0462C11.3746 11.9092 11.4471 11.7159 11.4471 11.4661C11.4471 11.1922 11.3733 10.9733 11.2256 10.8095C11.0779 10.6457 10.8765 10.5624 10.6213 10.5598H9.67871V12.2516Z" fill="white"/>
      <path d="M18.4403 14.6082C18.2228 14.8499 17.9045 15.0446 17.4856 15.1923C17.0667 15.34 16.6074 15.4139 16.1079 15.4139C15.3398 15.4139 14.7262 15.1789 14.267 14.7089C13.8077 14.239 13.562 13.585 13.5298 12.7471L13.5258 12.2396C13.5258 11.6622 13.6278 11.1586 13.8319 10.7289C14.036 10.2966 14.3274 9.9649 14.7061 9.73395C15.0874 9.50031 15.5278 9.38348 16.0273 9.38348C16.7578 9.38348 17.3245 9.55133 17.7273 9.88702C18.1328 10.22 18.3691 10.7182 18.4363 11.3815H17.0747C17.0264 11.0539 16.9216 10.8203 16.7605 10.6806C16.5994 10.541 16.3711 10.4711 16.0757 10.4711C15.7212 10.4711 15.4473 10.6215 15.2539 10.9223C15.0605 11.2231 14.9625 11.6528 14.9598 12.2114V12.5659C14.9598 13.1513 15.0592 13.5917 15.2579 13.8871C15.4594 14.1799 15.7749 14.3262 16.2046 14.3262C16.5725 14.3262 16.8464 14.2443 17.0264 14.0805V13.1701H16.0435V12.1993H18.4403V14.6082Z" fill="white"/>
    </g>
    <g id='gif'>
      <path d="M17.4167 21.0833H4.58333C4.07707 21.0833 3.66667 20.6729 3.66667 20.1667V1.83333C3.66667 1.32707 4.07707 0.916667 4.58333 0.916667H13.603C13.8275 0.916667 14.0442 0.999056 14.212 1.14821L14.8085 0.477065L14.212 1.14821L18.0257 4.53816C18.2214 4.71212 18.3333 4.96145 18.3333 5.22329V20.1667C18.3333 20.6729 17.9229 21.0833 17.4167 21.0833Z" stroke="#96AECD" stroke-width="1.83333"/>
      <rect y="6.41669" width="22" height="11.9167" rx="1.83333" fill="#96AECD"/>
      <path d="M9.9325 14.6082C9.71497 14.8499 9.39673 15.0446 8.97778 15.1923C8.55884 15.34 8.09961 15.4139 7.6001 15.4139C6.83203 15.4139 6.21838 15.1789 5.75916 14.7089C5.29993 14.239 5.0542 13.585 5.02197 12.7471L5.01794 12.2396C5.01794 11.6622 5.12 11.1586 5.3241 10.7289C5.5282 10.2966 5.81958 9.9649 6.19824 9.73395C6.57959 9.50031 7.02002 9.38348 7.51953 9.38348C8.25 9.38348 8.81665 9.55133 9.21948 9.88702C9.625 10.22 9.86133 10.7182 9.92847 11.3815H8.56689C8.51855 11.0539 8.41382 10.8203 8.25269 10.6806C8.09155 10.541 7.86328 10.4711 7.56787 10.4711C7.21338 10.4711 6.93945 10.6215 6.74609 10.9223C6.55273 11.2231 6.45471 11.6528 6.45203 12.2114V12.5659C6.45203 13.1513 6.55139 13.5917 6.75012 13.8871C6.95154 14.1799 7.26709 14.3262 7.69678 14.3262C8.0647 14.3262 8.33862 14.2443 8.51855 14.0805V13.1701H7.53564V12.1993H9.9325V14.6082Z" fill="white"/>
      <path d="M12.2609 15.3333H10.851V9.46808H12.2609V15.3333Z" fill="white"/>
      <path d="M16.9377 12.9969H14.6577V15.3333H13.2438V9.46808H17.1674V10.5598H14.6577V11.9092H16.9377V12.9969Z" fill="white"/>
    </g>
    <g id='pdf'>
      <path d="M17.4167 21.0833H4.58333C4.07707 21.0833 3.66667 20.6729 3.66667 20.1667V1.83333C3.66667 1.32707 4.07707 0.916667 4.58333 0.916667H13.603C13.8275 0.916667 14.0442 0.999056 14.212 1.14821L14.8085 0.477065L14.212 1.14821L18.0257 4.53816C18.2214 4.71212 18.3333 4.96145 18.3333 5.22329V20.1667C18.3333 20.6729 17.9229 21.0833 17.4167 21.0833Z" stroke="#96AECD" stroke-width="1.83333"/>
      <rect y="6.41669" width="22" height="11.9167" rx="1.83333" fill="#96AECD"/>
      <path d="M5.24756 13.3433V15.3333H3.83362V9.46808H6.17407C6.62256 9.46808 7.01868 9.55133 7.36243 9.71783C7.70886 9.88165 7.97607 10.1166 8.16406 10.4228C8.35474 10.7263 8.45007 11.0714 8.45007 11.4581C8.45007 12.0301 8.24463 12.488 7.83374 12.8317C7.42554 13.1728 6.86426 13.3433 6.1499 13.3433H5.24756ZM5.24756 12.2516H6.17407C6.448 12.2516 6.65613 12.1832 6.79846 12.0462C6.94348 11.9092 7.01599 11.7159 7.01599 11.4661C7.01599 11.1922 6.94214 10.9733 6.79443 10.8095C6.64673 10.6457 6.44531 10.5624 6.19019 10.5598H5.24756V12.2516Z" fill="white"/>
      <path d="M9.2074 15.3333V9.46808H11.0967C11.615 9.46808 12.0809 9.58624 12.4945 9.82257C12.9081 10.0562 13.2303 10.3879 13.4613 10.8176C13.6949 11.2446 13.8131 11.7239 13.8158 12.2557V12.5256C13.8158 13.0627 13.7017 13.5447 13.4734 13.9717C13.2478 14.3961 12.9282 14.7291 12.5146 14.9708C12.1038 15.2098 11.6445 15.3306 11.137 15.3333H9.2074ZM10.6213 10.5598V14.2457H11.1128C11.5183 14.2457 11.8298 14.102 12.0474 13.8146C12.2649 13.5246 12.3737 13.0949 12.3737 12.5256V12.2718C12.3737 11.7051 12.2649 11.2781 12.0474 10.9908C11.8298 10.7034 11.5129 10.5598 11.0967 10.5598H10.6213Z" fill="white"/>
      <path d="M18.2349 12.9969H15.9548V15.3333H14.5409V9.46808H18.4645V10.5598H15.9548V11.9092H18.2349V12.9969Z" fill="white"/>
    </g>
    <g id='doc'>
      <path d="M17.4167 21.0833H4.58333C4.07707 21.0833 3.66667 20.6729 3.66667 20.1667V1.83333C3.66667 1.32707 4.07707 0.916667 4.58333 0.916667H13.603C13.8275 0.916667 14.0442 0.999056 14.212 1.14821L14.8085 0.477065L14.212 1.14821L18.0257 4.53816C18.2214 4.71212 18.3333 4.96145 18.3333 5.22329V20.1667C18.3333 20.6729 17.9229 21.0833 17.4167 21.0833Z" stroke="#96AECD" stroke-width="1.83333"/>
      <rect y="6.41669" width="22" height="11.9167" rx="1.83333" fill="#96AECD"/>
      <path d="M3.22131 15.3333V9.46808H5.1106C5.62891 9.46808 6.09485 9.58624 6.50842 9.82257C6.922 10.0562 7.24426 10.3879 7.47522 10.8176C7.70886 11.2446 7.82703 11.7239 7.82971 12.2557V12.5256C7.82971 13.0627 7.71558 13.5447 7.4873 13.9717C7.26172 14.3961 6.94214 14.7291 6.52856 14.9708C6.11768 15.2098 5.65845 15.3306 5.15088 15.3333H3.22131ZM4.63525 10.5598V14.2457H5.12671C5.53223 14.2457 5.84375 14.102 6.06128 13.8146C6.27881 13.5246 6.38757 13.0949 6.38757 12.5256V12.2718C6.38757 11.7051 6.27881 11.2781 6.06128 10.9908C5.84375 10.7034 5.52686 10.5598 5.1106 10.5598H4.63525Z" fill="white"/>
      <path d="M13.5217 12.5215C13.5217 13.0936 13.4156 13.5998 13.2035 14.0402C12.9913 14.4807 12.6892 14.8204 12.2971 15.0594C11.9077 15.2957 11.4633 15.4139 10.9637 15.4139C10.4642 15.4139 10.0211 15.2997 9.6344 15.0715C9.24768 14.8405 8.94556 14.5115 8.72803 14.0845C8.51318 13.6575 8.40039 13.1674 8.38965 12.6142V12.2839C8.38965 11.7092 8.49438 11.2029 8.70386 10.7652C8.91602 10.3248 9.21814 9.98505 9.61023 9.74603C10.005 9.50702 10.4535 9.38751 10.9557 9.38751C11.4525 9.38751 11.8956 9.50568 12.285 9.742C12.6744 9.97833 12.9766 10.3154 13.1914 10.7531C13.4089 11.1882 13.519 11.6877 13.5217 12.2516V12.5215ZM12.0836 12.2758C12.0836 11.6931 11.9856 11.2513 11.7896 10.9505C11.5962 10.647 11.3182 10.4953 10.9557 10.4953C10.2467 10.4953 9.87207 11.027 9.83179 12.0905L9.82776 12.5215C9.82776 13.0963 9.9231 13.538 10.1138 13.8469C10.3044 14.1557 10.5878 14.3101 10.9637 14.3101C11.3209 14.3101 11.5962 14.1584 11.7896 13.8549C11.9829 13.5515 12.0809 13.1151 12.0836 12.5457V12.2758Z" fill="white"/>
      <path d="M18.9962 13.3474C18.9774 13.7556 18.8673 14.1168 18.6659 14.431C18.4645 14.7425 18.1812 14.9842 17.8159 15.1561C17.4534 15.3279 17.0385 15.4139 16.5712 15.4139C15.8004 15.4139 15.1935 15.1628 14.7504 14.6606C14.3073 14.1584 14.0857 13.4494 14.0857 12.5336V12.2436C14.0857 11.6689 14.1851 11.1667 14.3838 10.737C14.5852 10.3046 14.8739 9.97162 15.2499 9.73798C15.6259 9.50165 16.0609 9.38348 16.5551 9.38348C17.2667 9.38348 17.8387 9.57147 18.2711 9.94745C18.7035 10.3207 18.9492 10.8364 19.0083 11.4943H17.5984C17.5876 11.1371 17.4977 10.8807 17.3285 10.7249C17.1593 10.5692 16.9015 10.4913 16.5551 10.4913C16.2032 10.4913 15.9454 10.6229 15.7816 10.886C15.6178 11.1492 15.5319 11.5695 15.5238 12.1469V12.5618C15.5238 13.1876 15.6017 13.6347 15.7574 13.9033C15.9159 14.1718 16.1871 14.3061 16.5712 14.3061C16.8961 14.3061 17.1445 14.2296 17.3164 14.0765C17.4883 13.9234 17.5796 13.6804 17.5903 13.3474H18.9962Z" fill="white"/>
    </g>
  </defs>
</svg>
