<svg xmlns="http://www.w3.org/2000/svg">
  <defs>
    <path id="audio" d="M1.73869 2.92125C1.96577 2.92125 2.18608 2.84397 2.36339 2.70212L5.46478 0.221009C6.11954 -0.302802 7.08947 0.163371 7.08947 1.00188V8.84063C7.08947 9.67913 6.11954 10.1453 5.46478 9.6215L2.36339 7.14038C2.18608 6.99853 1.96577 6.92125 1.73869 6.92125H1.08911C0.536827 6.92125 0.0891113 6.47354 0.0891113 5.92125V3.92125C0.0891113 3.36897 0.536826 2.92125 1.08911 2.92125H1.73869Z"/>
    <path id="photo" fill-rule="evenodd" clip-rule="evenodd"
          d="M10.09 7.04a1.5 1.5 0 01-1.5 1.5H1.78a1.5 1.5 0 01-1.5-1.5V2.9a1.5 1.5 0 011.5-1.5h.72a1 1 0 00.67-.26l.66-.6A1 1 0 014.5.3h1.72a1 1 0 01.64.22l.79.66a1 1 0 00.63.23h.3a1.5 1.5 0 011.5 1.5v4.13zM6.79 4.6a1.53 1.53 0 11-3.06 0 1.53 1.53 0 013.06 0z"
    />
    <path id="video" d="M5.86 5.74a1 1 0 000-1.63L1.58 1.05A1 1 0 000 1.86v6.12a1 1 0 001.58.81l4.28-3.05z"/>
    <path id="edit" fill-rule="evenodd" clip-rule="evenodd" d="M16.2971 5.73483L13.3571 2.79483L12.2599 3.89204L15.1999 6.83204L16.2971 5.73483ZM13.7635 8.26844L10.8235 5.32844L4.26675 11.8852L7.20675 14.8252L13.7635 8.26844ZM14.7935 1.35843C14.0432 0.608189 12.792 0.6431 11.9987 1.4364L2.90832 10.5267C2.11502 11.32 2.08011 12.5713 2.83035 13.3216L3.00082 13.492L2.88687 14.5995L2.74016 16.0253C2.72084 16.2131 2.87824 16.3616 3.06531 16.3321L5.46253 15.9538L5.77035 16.2616C6.52058 17.0118 7.77187 16.9769 8.56518 16.1836L17.6555 7.09326C18.4488 6.29995 18.4837 5.04867 17.7335 4.29843L14.7935 1.35843Z" />
    <g id = "calendar">
      <path fill-rule="evenodd" clip-rule="evenodd" d="M13.75 1.27273H1.25L1.25 12.7273H13.75V1.27273ZM1.25 0C0.559644 0 0 0.569819 0 1.27273V12.7273C0 13.4302 0.559644 14 1.25 14H13.75C14.4404 14 15 13.4302 15 12.7273V1.27273C15 0.569819 14.4404 0 13.75 0H1.25Z" fill="#107EFF"/>
      <path d="M2.5 3.18182C1.75 3.18182 1.35417 4.0303 1.25 4.45455H0L0.625 0.636364H14.375L15 4.45455H13.75C13.75 3.69091 13.125 3.18182 12.5 3.18182H2.5Z" fill="#107EFF"/>
      <path d="M5.625 6.36364C5.625 7.06654 5.06536 7.63636 4.375 7.63636C3.68464 7.63636 3.125 7.06654 3.125 6.36364C3.125 5.66073 3.68464 5.09091 4.375 5.09091C5.06536 5.09091 5.625 5.66073 5.625 6.36364Z" fill="#107EFF"/>
      <path d="M8.125 6.36364C8.125 6.71509 7.84518 7 7.5 7C7.15482 7 6.875 6.71509 6.875 6.36364C6.875 6.01218 7.15482 5.72727 7.5 5.72727C7.84518 5.72727 8.125 6.01218 8.125 6.36364Z" fill="#107EFF"/>
      <path d="M11.25 6.36364C11.25 6.71509 10.9702 7 10.625 7C10.2798 7 10 6.71509 10 6.36364C10 6.01218 10.2798 5.72727 10.625 5.72727C10.9702 5.72727 11.25 6.01218 11.25 6.36364Z" fill="#107EFF"/>
      <path d="M8.125 9.54545C8.125 9.89691 7.84518 10.1818 7.5 10.1818C7.15482 10.1818 6.875 9.89691 6.875 9.54545C6.875 9.194 7.15482 8.90909 7.5 8.90909C7.84518 8.90909 8.125 9.194 8.125 9.54545Z" fill="#107EFF"/>
      <path d="M5 9.54545C5 9.89691 4.72018 10.1818 4.375 10.1818C4.02982 10.1818 3.75 9.89691 3.75 9.54545C3.75 9.194 4.02982 8.90909 4.375 8.90909C4.72018 8.90909 5 9.194 5 9.54545Z" fill="#107EFF"/>
      <path d="M11.25 9.54545C11.25 9.89691 10.9702 10.1818 10.625 10.1818C10.2798 10.1818 10 9.89691 10 9.54545C10 9.194 10.2798 8.90909 10.625 8.90909C10.9702 8.90909 11.25 9.194 11.25 9.54545Z" fill="#107EFF"/>
    </g>
    <g id = "search">
      <circle cx="5.78561" cy="5.78561" r="4.78561" fill="#E8F3FF" stroke="#107EFF" stroke-width="2"/>
      <path d="M9 10L12 13" stroke="#107EFF" stroke-width="2" stroke-linecap="round"/>
    </g>
    <path id = "edit" fill-rule="evenodd" clip-rule="evenodd" d="M16.2971 5.73483L13.3571 2.79483L12.2599 3.89204L15.1999 6.83204L16.2971 5.73483ZM13.7635 8.26844L10.8235 5.32844L4.26675 11.8852L7.20675 14.8252L13.7635 8.26844ZM14.7935 1.35843C14.0432 0.608189 12.792 0.6431 11.9987 1.4364L2.90832 10.5267C2.11502 11.32 2.08011 12.5713 2.83035 13.3216L3.00082 13.492L2.88687 14.5995L2.74016 16.0253C2.72084 16.2131 2.87824 16.3616 3.06531 16.3321L5.46253 15.9538L5.77035 16.2616C6.52058 17.0118 7.77187 16.9769 8.56518 16.1836L17.6555 7.09326C18.4488 6.29995 18.4837 5.04867 17.7335 4.29843L14.7935 1.35843Z"/>
    <path id = "del" fill-rule="evenodd" clip-rule="evenodd" d="M5.08888 0C4.96223 0 4.84031 0.0480592 4.74772 0.134472L4.31915 0.534473C4.23631 0.611788 4.18782 0.704455 4.16875 0.799988H2.99231H1.09232C0.539812 0.799988 0.0919189 1.24788 0.0919189 1.80038C0.0919189 2.31914 0.486763 2.74567 0.992314 2.79585L0.99231 2.79999V14C0.99231 15.1046 1.88774 16 2.99231 16H10.1923C11.2969 16 12.1923 15.1046 12.1923 14V2.79999L12.1923 2.79577C12.6975 2.74523 13.0919 2.31887 13.0919 1.80038C13.0919 1.24788 12.644 0.799988 12.0915 0.799988H10.1923H9.07615C9.058 0.709643 9.01347 0.621669 8.93825 0.546447L8.53824 0.146447C8.44448 0.0526784 8.3173 0 8.18469 0H5.08888ZM10.1923 2.80078H2.99231L2.99231 14L10.1923 14L10.1923 2.80078ZM6.09192 5.10986C6.09192 4.55758 5.6442 4.10986 5.09192 4.10986C4.53963 4.10986 4.09192 4.55758 4.09192 5.10986V11.7483C4.09192 12.3005 4.53963 12.7483 5.09192 12.7483C5.6442 12.7483 6.09192 12.3005 6.09192 11.7483V5.10986ZM8.0929 4.10986C8.64518 4.10986 9.0929 4.55758 9.0929 5.10986V11.7483C9.0929 12.3005 8.64518 12.7483 8.0929 12.7483C7.54061 12.7483 7.0929 12.3005 7.0929 11.7483V5.10986C7.0929 4.55758 7.54061 4.10986 8.0929 4.10986Z"/>
    <g id="back">
      <path d="M24 5.5H1.5" stroke="#107EFF" stroke-width="2" stroke-linecap="round"/>
      <path d="M5.5 10L1.35355 5.85355C1.15829 5.65829 1.15829 5.34171 1.35355 5.14645L5.5 1" stroke="#107EFF" stroke-width="2" stroke-linecap="round"/>
    </g>
    <g id="back-white">
      <path d="M24 5.5H1.5" stroke="#fff" stroke-width="2" stroke-linecap="round"/>
      <path d="M5.5 10L1.35355 5.85355C1.15829 5.65829 1.15829 5.34171 1.35355 5.14645L5.5 1" stroke="#fff" stroke-width="2" stroke-linecap="round"/>
    </g>
    <g id = "plus-in-circle">
      <circle cx="7" cy="7" r="7" fill="white"/>
      <path d="M7 4V10" stroke="#107EFF" stroke-width="2" stroke-linecap="round"/>
      <path d="M10 7L4 7" stroke="#107EFF" stroke-width="2" stroke-linecap="round"/>
    </g>
    <g id = "approved-green">
      <circle cx="9" cy="9" r="9" fill="white"/>
      <path d="M6.85254 9.12134L8.4054 10.6742" stroke="#43DD9C" stroke-width="2" stroke-linecap="round"/>
      <path d="M11.511 7.56848L8.40526 10.6742" stroke="#43DD9C" stroke-width="2" stroke-linecap="round"/>
    </g>
    <g id = "approved-blue">
    <circle cx="9" cy="9" r="9" fill="white"/>
    <path d="M6.85352 9.12134L8.40638 10.6742" stroke="#107EFF" stroke-width="2" stroke-linecap="round"/>
    <path d="M11.5117 7.56848L8.40599 10.6742" stroke="#107EFF" stroke-width="2" stroke-linecap="round"/>
    </g>
    <g id="download">
      <path d="M1 10.8047V12.5774C1 13.4059 1.67157 14.0774 2.5 14.0774H11.5C12.3284 14.0774 13 13.4059 13 12.5774V10.8047" stroke="#107EFF" stroke-width="2" stroke-linecap="round"/>
      <path d="M4.27344 4.14036L6.85929 1.55451C6.93739 1.4764 7.06403 1.4764 7.14213 1.55451L9.72798 4.14036" stroke="#107EFF" stroke-width="2" stroke-linecap="round"/>
      <path d="M7 2.07739V9.71376" stroke="#107EFF" stroke-width="2" stroke-linecap="round"/>
    </g>
    <g id = "format--flv">
      <rect width="30" height="16" rx="2.30769" fill="#96AECD"/>
      <path d="M11.1211 8.60156H7.80469V12H5.74805V3.46875H11.4551V5.05664H7.80469V7.01953H11.1211V8.60156ZM14.3672 10.418H17.9473V12H12.3105V3.46875H14.3672V10.418ZM20.918 9.67969L22.6172 3.46875H24.9141L22.043 12H19.793L16.9453 3.46875H19.2246L20.918 9.67969Z" fill="white"/>
    </g>
    <g id = "format--avi">
      <rect width="30" height="16" rx="2.30769" fill="#96AECD"/>
      <path d="M10.8516 10.4062H8.0332L7.54102 12H5.34375L8.47266 3.46875H10.4062L13.5586 12H11.3496L10.8516 10.4062ZM8.52539 8.81836H10.3594L9.43945 5.85938L8.52539 8.81836ZM17.0391 9.67969L18.7383 3.46875H21.0352L18.1641 12H15.9141L13.0664 3.46875H15.3457L17.0391 9.67969ZM23.8535 12H21.8027V3.46875H23.8535V12Z" fill="white"/>
    </g>
    <g id = "format--mov">
      <rect width="37" height="16" rx="2.30769" fill="#96AECD"/>
      <path d="M8.53906 3.46875L10.4434 9.4043L12.3418 3.46875H15.0488V12H12.9863V10.0078L13.1855 5.92969L11.123 12H9.76367L7.69531 5.92383L7.89453 10.0078V12H5.83789V3.46875H8.53906ZM23.5859 7.91016C23.5859 8.74219 23.4316 9.47852 23.123 10.1191C22.8145 10.7598 22.375 11.2539 21.8047 11.6016C21.2383 11.9453 20.5918 12.1172 19.8652 12.1172C19.1387 12.1172 18.4941 11.9512 17.9316 11.6191C17.3691 11.2832 16.9297 10.8047 16.6133 10.1836C16.3008 9.5625 16.1367 8.84961 16.1211 8.04492V7.56445C16.1211 6.72852 16.2734 5.99219 16.5781 5.35547C16.8867 4.71484 17.3262 4.2207 17.8965 3.87305C18.4707 3.52539 19.123 3.35156 19.8535 3.35156C20.5762 3.35156 21.2207 3.52344 21.7871 3.86719C22.3535 4.21094 22.793 4.70117 23.1055 5.33789C23.4219 5.9707 23.582 6.69727 23.5859 7.51758V7.91016ZM21.4941 7.55273C21.4941 6.70508 21.3516 6.0625 21.0664 5.625C20.7852 5.18359 20.3809 4.96289 19.8535 4.96289C18.8223 4.96289 18.2773 5.73633 18.2188 7.2832L18.2129 7.91016C18.2129 8.74609 18.3516 9.38867 18.6289 9.83789C18.9062 10.2871 19.3184 10.5117 19.8652 10.5117C20.3848 10.5117 20.7852 10.291 21.0664 9.84961C21.3477 9.4082 21.4902 8.77344 21.4941 7.94531V7.55273ZM27.8281 9.67969L29.5273 3.46875H31.8242L28.9531 12H26.7031L23.8555 3.46875H26.1348L27.8281 9.67969Z" fill="white"/>
    </g>
    <g id = "plus">
      <path fill-rule="evenodd" clip-rule="evenodd" d="M8.05161 1.05155C8.05161 0.470794 7.58081 -4.43251e-08 7.00005 0C6.41928 -4.43251e-08 5.94848 0.470794 5.94848 1.05155V5.94843H1.05132C0.470558 5.94843 -0.00024485 6.41922 -0.000244141 6.99998C-0.00024485 7.58073 0.470558 8.05153 1.05132 8.05152H5.94848V12.9485C5.94848 13.5292 6.41928 14 7.00005 14C7.58081 14 8.05161 13.5292 8.05161 12.9485V8.05153H12.9485C13.5292 8.05153 14 7.58073 14 6.99998C14 6.41922 13.5292 5.94843 12.9485 5.94843H8.05161V1.05155Z"/>
    </g>
    <path id="comment" fill-rule="evenodd" clip-rule="evenodd" d="M2.2553 7.81519L3.17821 8.74927L4.11248 7.80368H9.53906C10.3566 7.80368 11.0232 7.12907 11.0232 6.30174V2.49053C11.0232 1.66319 10.3566 0.98858 9.53906 0.98858H2.46094C1.64343 0.98858 0.976835 1.66319 0.976835 2.49053V6.33713C0.976835 6.99337 1.40117 7.56191 2.01574 7.74415L2.2553 7.81519ZM2.9296 9.89577L1.74106 8.69284C0.710907 8.38737 0 7.43294 0 6.33713V2.49053C0 1.11722 1.10394 0 2.46094 0H9.53906C10.8961 0 12 1.11722 12 2.49053V6.30174C12 7.67505 10.8961 8.79226 9.53906 8.79226H4.51712L3.42682 9.89577C3.3609 9.96248 3.27145 10 3.17825 10C3.08496 10 2.99561 9.96248 2.9296 9.89577ZM3.32922 3.32502C3.32922 3.05203 3.5479 2.83073 3.81764 2.83073H8.18128C8.45102 2.83073 8.66969 3.05203 8.66969 3.32502C8.66969 3.59801 8.45102 3.81931 8.18128 3.81931H3.81764C3.5479 3.81931 3.32922 3.59801 3.32922 3.32502ZM3.81764 5.03877C3.5479 5.03877 3.32922 5.26008 3.32922 5.53306C3.32922 5.80605 3.5479 6.02735 3.81764 6.02735H8.18128C8.45102 6.02735 8.66969 5.80605 8.66969 5.53306C8.66969 5.26008 8.45102 5.03877 8.18128 5.03877H3.81764Z" fill="#107EFF"/>
    <g id='home'>
      <circle cx="9" cy="9" r="9" fill="white"/>
      <path fill-rule="evenodd" clip-rule="evenodd" d="M9.00122 5.46079L12.9497 7.87376V7.95405H5.05273V7.87376L9.00122 5.46079ZM3.55273 7.59334C3.55273 7.24497 3.73403 6.92171 4.03128 6.74006L8.47977 4.02154C8.79989 3.82591 9.20256 3.82591 9.52267 4.02153L13.9712 6.74006C14.2684 6.92171 14.4497 7.24497 14.4497 7.59334V8.45406C14.4497 9.00634 14.002 9.45405 13.4497 9.45405H13.2391V13.2971C13.2391 13.8494 12.7914 14.2971 12.2391 14.2971H5.76367C5.21139 14.2971 4.76367 13.8494 4.76367 13.2971V9.45405H4.55274C4.00045 9.45405 3.55273 9.00634 3.55273 8.45405V7.59334ZM6.26367 12.7971V9.45673H11.7391V12.7971H6.26367Z" fill="#107EFF"/>
    </g>
    <g id='login'>
      <circle cx="9" cy="9" r="9" fill="white"/>
      <path fill-rule="evenodd" clip-rule="evenodd" d="M6.56876 3.51239C7.98205 3.51239 9.12775 4.65809 9.12775 6.07138V7.04987H12.237C12.7892 7.04987 13.237 7.49758 13.237 8.04987V13.2145C13.237 13.7668 12.7892 14.2145 12.237 14.2145H6.7879C6.23562 14.2145 5.7879 13.7668 5.7879 13.2145V8.04986C5.7879 7.49758 6.23562 7.04987 6.7879 7.04987H7.62775V6.07138C7.62775 5.48652 7.15362 5.01239 6.56876 5.01239C5.98389 5.01239 5.50977 5.48652 5.50977 6.07138C5.50977 6.48559 5.17398 6.82138 4.75977 6.82138C4.34555 6.82138 4.00977 6.48559 4.00977 6.07138C4.00977 4.65809 5.15547 3.51239 6.56876 3.51239ZM7.2879 8.54987V12.7145H11.737V8.54987H7.2879ZM10.4478 10.6323C10.4478 11.1479 10.0299 11.5658 9.51434 11.5658C8.9988 11.5658 8.58087 11.1479 8.58087 10.6323C8.58087 10.1168 8.9988 9.69885 9.51434 9.69885C10.0299 9.69885 10.4478 10.1168 10.4478 10.6323Z" fill="#107EFF"/>
    </g>
    <path id="upload" fill-rule="evenodd" clip-rule="evenodd" d="M1 7.30454C1.55228 7.30454 2 7.75225 2 8.30454V9.34999C2 9.62613 2.22386 9.84999 2.5 9.84999H8.83333C9.10948 9.84999 9.33333 9.62613 9.33333 9.34999V8.30454C9.33333 7.75225 9.78105 7.30454 10.3333 7.30454C10.8856 7.30454 11.3333 7.75225 11.3333 8.30454V9.34999C11.3333 10.7307 10.214 11.85 8.83333 11.85H2.5C1.11928 11.85 0 10.7307 0 9.34999V8.30454C0 7.75225 0.447715 7.30454 1 7.30454ZM4.81761 8.02179C5.28624 8.49042 6.04603 8.49042 6.51466 8.02179L8.49445 6.042C8.88498 5.65147 8.88498 5.01831 8.49445 4.62778C8.10393 4.23726 7.47076 4.23726 7.08024 4.62778L6.66699 5.04103V0.999999C6.66699 0.447714 6.21928 -9.53674e-07 5.66699 -9.53674e-07C5.11471 -9.53674e-07 4.66699 0.447714 4.66699 0.999999V5.04275L4.25203 4.62778C3.8615 4.23726 3.22834 4.23726 2.83782 4.62778C2.44729 5.01831 2.44729 5.65147 2.83782 6.042L4.81761 8.02179Z" fill="#107EFF"/>
    <g id='stick-circle'>
      <circle cx="9" cy="9" r="9"/>
      <path fill-rule="evenodd" clip-rule="evenodd" d="M10.1148 3.50001C10.565 3.4987 11.0101 3.59327 11.424 3.77718C11.8379 3.96103 12.2114 4.23002 12.5241 4.56673C12.8367 4.90336 13.0827 5.30122 13.2495 5.73658C13.4163 6.1719 13.5012 6.6373 13.5 7.10631C13.4988 7.57532 13.4115 8.04023 13.2424 8.47461C13.0734 8.90891 12.8254 9.30527 12.5111 9.64004C12.511 9.64012 12.5112 9.63996 12.5111 9.64004L8.69727 13.7124C8.69704 13.7126 8.6968 13.7129 8.69657 13.7131C8.46726 13.9598 8.19308 14.1577 7.88861 14.2935C7.58372 14.4294 7.25549 14.5 6.92301 14.5C6.55269 14.5 6.24469 14.3808 5.98766 14.2661C5.67071 14.1248 5.35973 13.8782 5.14061 13.6422C5.04617 13.5406 4.95767 13.4415 4.87988 13.3234C4.79953 13.2014 4.74189 13.0768 4.68491 12.9286C4.56258 12.6107 4.5 12.271 4.5 11.9287C4.5 11.5865 4.56258 11.2468 4.68491 10.9288C4.80725 10.6108 4.98743 10.3196 5.21682 10.0726L5.21872 10.0706L8.62063 6.44873C8.62071 6.44864 8.62056 6.44881 8.62063 6.44873C8.91904 6.13038 9.33081 5.94443 9.76783 5.94546C9.93198 5.94584 10.117 5.95692 10.3039 6.03331C10.4954 6.11155 10.6386 6.2371 10.765 6.3731C10.8941 6.51209 11.0044 6.662 11.0687 6.85675C11.1288 7.03879 11.1342 7.22046 11.1346 7.38173C11.1354 7.81752 10.9763 8.2426 10.6818 8.56245L10.6785 8.56612L7.62837 11.8132C7.43931 12.0145 7.12288 12.0244 6.9216 11.8353C6.72033 11.6463 6.71043 11.3298 6.89949 11.1286L9.94761 7.88354C10.0641 7.75612 10.135 7.57707 10.1346 7.38376C10.1342 7.23007 10.1251 7.18842 10.1191 7.17018C10.1191 7.17002 10.1192 7.17038 10.1191 7.17018C10.117 7.16356 10.1078 7.13493 10.0323 7.05364C9.9921 7.01041 9.96569 6.98691 9.94862 6.97376C9.93377 6.96232 9.92719 6.95964 9.9257 6.95903C9.9213 6.95724 9.89322 6.94576 9.76547 6.94545C9.61755 6.94511 9.46745 7.0075 9.35037 7.13246L5.94863 10.7541C5.80866 10.9051 5.69583 11.0862 5.61822 11.2879C5.54043 11.4901 5.5 11.708 5.5 11.9287C5.5 12.1495 5.54043 12.3674 5.61822 12.5696C5.66129 12.6815 5.68891 12.7338 5.71502 12.7734C5.74369 12.8169 5.78286 12.8643 5.87331 12.9617C6.02396 13.1239 6.22878 13.2787 6.39497 13.3528C6.62108 13.4537 6.77039 13.5 6.92301 13.5C7.11348 13.5 7.30307 13.4597 7.48131 13.3802C7.65967 13.3006 7.82424 13.1829 7.96456 13.0318L7.96597 13.0303L11.7815 8.95622C12.006 8.71715 12.1867 8.43017 12.3106 8.11188C12.4345 7.79356 12.4991 7.45084 12.5 7.10374C12.5009 6.75663 12.438 6.41351 12.3157 6.0944C12.1935 5.77533 12.0147 5.48772 11.7913 5.24725C11.5681 5.00685 11.3049 4.8185 11.018 4.69105C10.7313 4.56365 10.4254 4.49911 10.1177 4.50001C9.80994 4.50091 9.50437 4.56724 9.21821 4.69634C8.93192 4.82549 8.66965 5.01542 8.44754 5.25718L8.4438 5.26125L5.81721 8.05748C5.62815 8.25875 5.31172 8.26866 5.11045 8.0796C4.90918 7.89054 4.89928 7.57411 5.08834 7.37283L7.71308 4.57853C8.02365 4.24104 8.39501 3.97066 8.80699 3.7848C9.21994 3.5985 9.6645 3.50133 10.1148 3.50001Z" fill="white"/>
    </g>
    <g id="stick">
      <path fill-rule="evenodd" clip-rule="evenodd" d="M8.40893 0.500011C8.8144 0.498923 9.21622 0.577089 9.59134 0.730152C9.96646 0.883219 10.3077 1.10824 10.5952 1.39256C10.8827 1.67689 11.1108 2.01492 11.2662 2.38736C11.4216 2.75981 11.5011 3.15917 11.5 3.56241C11.4989 3.96565 11.4171 4.36456 11.2597 4.73615C11.1024 5.10729 10.8727 5.4437 10.5841 5.72624C10.5837 5.72657 10.5834 5.7269 10.583 5.72723L4.40397 11.8376C4.19125 12.048 3.93902 12.2146 3.66183 12.3281C3.38465 12.4416 3.08775 12.5 2.78805 12.5C2.48836 12.5 2.19146 12.4416 1.91428 12.3281C1.63708 12.2146 1.38486 12.048 1.17214 11.8377C0.959417 11.6273 0.790371 11.3773 0.674934 11.1017C0.559492 10.8261 0.5 10.5305 0.5 10.2319C0.5 9.93324 0.559492 9.63766 0.674934 9.36206C0.790372 9.08648 0.959419 8.83645 1.17215 8.62609L6.51199 3.34576C6.79287 3.07043 7.17145 2.91731 7.56458 2.91817C7.95772 2.91902 8.33562 3.07378 8.6153 3.35034C8.89516 3.62708 9.05381 4.00337 9.05468 4.39719C9.05555 4.791 8.89857 5.16799 8.61992 5.44596L8.61836 5.44752L5.38717 8.64249C5.19081 8.83665 4.87424 8.83487 4.68008 8.63851C4.48592 8.44215 4.4877 8.12557 4.68406 7.93141L7.91368 4.73799C7.91391 4.73777 7.91346 4.73822 7.91368 4.73799C8.00449 4.64705 8.05496 4.52482 8.05468 4.3994C8.0544 4.27367 8.00382 4.15202 7.91217 4.0614C7.82033 3.97058 7.69468 3.91845 7.56242 3.91816C7.43047 3.91788 7.30486 3.96922 7.21267 4.05925C7.21245 4.05947 7.21289 4.05903 7.21267 4.05925L1.87528 9.33715C1.75593 9.45517 1.66156 9.59497 1.59728 9.74842C1.53301 9.90187 1.5 10.0661 1.5 10.2319C1.5 10.3976 1.53301 10.5619 1.59728 10.7153C1.66156 10.8688 1.75593 11.0086 1.87528 11.1266C1.99463 11.2446 2.13664 11.3385 2.29332 11.4027C2.45 11.4669 2.61813 11.5 2.78805 11.5C2.95798 11.5 3.12611 11.4669 3.28279 11.4027C3.43947 11.3385 3.58147 11.2446 3.70082 11.1266L9.88384 5.0123C10.0787 4.82169 10.2333 4.59519 10.3389 4.34595C10.4445 4.09671 10.4992 3.8295 10.5 3.55961C10.5007 3.28972 10.4476 3.02221 10.3433 2.77242C10.2391 2.5226 10.0858 2.29526 9.89201 2.1036C9.69819 1.91193 9.46766 1.75973 9.21354 1.65604C8.9594 1.55234 8.68685 1.49927 8.41161 1.50001C8.13637 1.50075 7.86412 1.55528 7.61056 1.66034C7.35702 1.76539 7.12734 1.91881 6.93458 2.11152L6.93264 2.11345L2.85849 6.14199C2.66213 6.33615 2.34556 6.33437 2.1514 6.13801C1.95724 5.94165 1.95902 5.62507 2.15538 5.43091L6.22758 1.4043C6.22791 1.40397 6.22824 1.40365 6.22857 1.40332C6.51431 1.11792 6.85393 0.891402 7.22778 0.736499C7.60206 0.581422 8.00345 0.501099 8.40893 0.500011Z" fill="#107EFF"/>
    </g>
    <path id="load" fill-rule="evenodd" clip-rule="evenodd" d="M6.17436 0.404493C6.63722 -0.0340823 7.36225 -0.0340823 7.82511 0.404493L10.4148 2.85835C10.8157 3.23821 10.8328 3.87115 10.4529 4.27205C10.073 4.67295 9.4401 4.69 9.0392 4.31013L8 3.32545V8.86525C8 9.41753 7.55228 9.86525 7 9.86525C6.44772 9.86525 6 9.41753 6 8.86525V3.32495L4.96027 4.31013C4.55938 4.69 3.92644 4.67295 3.54657 4.27205C3.16671 3.87115 3.18375 3.23821 3.58465 2.85835L6.17436 0.404493ZM1 8.89899C1.55228 8.89899 2 9.3467 2 9.89899V11.5C2 11.7762 2.22386 12 2.5 12H11.5C11.7761 12 12 11.7762 12 11.5V9.89899C12 9.3467 12.4477 8.89899 13 8.89899C13.5523 8.89899 14 9.3467 14 9.89899V11.5C14 12.8807 12.8807 14 11.5 14H2.5C1.11929 14 0 12.8807 0 11.5V9.89899C0 9.3467 0.447715 8.89899 1 8.89899Z"/>
    <g id="reset">
      <path fill-rule="evenodd" clip-rule="evenodd" d="M0.292893 0.292893C0.683417 -0.0976311 1.31658 -0.0976311 1.70711 0.292893L9.70711 8.29289C10.0976 8.68342 10.0976 9.31658 9.70711 9.70711C9.31658 10.0976 8.68342 10.0976 8.29289 9.70711L0.292893 1.70711C-0.0976311 1.31658 -0.0976311 0.683417 0.292893 0.292893Z"/>
      <path fill-rule="evenodd" clip-rule="evenodd" d="M9.70711 0.292893C9.31658 -0.0976311 8.68342 -0.0976311 8.29289 0.292893L0.292893 8.29289C-0.0976315 8.68342 -0.0976315 9.31658 0.292893 9.70711C0.683417 10.0976 1.31658 10.0976 1.70711 9.70711L9.70711 1.70711C10.0976 1.31658 10.0976 0.683417 9.70711 0.292893Z"/>
    </g>
    <g id="visible">
      <path fill-rule="evenodd" clip-rule="evenodd" d="M9.99991 0C15.4371 0 19.6942 5.85514 19.8729 6.10445C20.0424 6.34072 20.0424 6.66176 19.8729 6.89823C19.6942 7.1473 15.4371 13.0025 9.99991 13.0025C4.56275 13.0025 0.305391 7.14734 0.126914 6.89803C-0.0423048 6.66152 -0.0423048 6.34073 0.126914 6.10421C0.305391 5.85514 4.56275 0 9.99991 0ZM15.6563 4.49787C16.5185 5.22764 17.207 5.96726 17.6638 6.50128C17.2069 7.03537 16.5184 7.77492 15.6563 8.50462C14.0294 9.88161 12.0455 11.0025 9.99991 11.0025C7.95434 11.0025 5.9704 9.88161 4.34346 8.50461C3.48113 7.77475 2.79257 7.03507 2.33597 6.50118C2.79266 5.96723 3.4812 5.22763 4.34345 4.49786C5.9704 3.12087 7.95434 2 9.99991 2C12.0455 2 14.0294 3.12086 15.6563 4.49787ZM9.99894 9.59699C11.5841 9.59699 12.8691 8.28623 12.8691 6.66934C12.8691 5.05245 11.5841 3.7417 9.99894 3.7417C8.41378 3.7417 7.12876 5.05245 7.12876 6.66934C7.12876 8.28623 8.41378 9.59699 9.99894 9.59699Z" fill="#95AECD"/>
    </g>
    <g id="invisible">
      <path fill-rule="evenodd" clip-rule="evenodd" d="M0.160227 0.442884C0.457058 -0.00917357 1.06571 -0.136027 1.51969 0.159549L5.55479 2.78673C7.01319 1.91179 8.71849 1.2582 10.5587 1.2582C16.0055 1.2582 20.2702 6.98429 20.4492 7.22811C20.619 7.45918 20.619 7.77313 20.4492 8.0044C20.3659 8.11786 19.3959 9.42097 17.8329 10.7808L21.5552 13.2043C22.0092 13.4999 22.1366 14.106 21.8398 14.558C21.6596 14.8325 21.3644 14.9871 21.0587 15C20.9889 14.8072 20.8579 14.6346 20.6724 14.5138L0.636874 1.46903C0.458521 1.3529 0.256296 1.30198 0.0584839 1.31036C-0.0424861 1.03138 -0.0153018 0.710204 0.160227 0.442884ZM2.59551 5.08117C1.4396 6.1899 0.738412 7.13216 0.668155 7.22787C0.498636 7.45918 0.498636 7.7729 0.668155 8.0042C0.84695 8.24802 5.11187 13.9741 10.5587 13.9741C12.0326 13.9741 13.42 13.5548 14.6633 12.9383L12.683 11.6489C11.991 11.8829 11.2787 12.0182 10.5587 12.0182C8.50949 12.0182 6.52202 10.922 4.89219 9.57536C4.02833 8.8616 3.33855 8.13822 2.88114 7.6161C3.22605 7.22242 3.70298 6.71443 4.28695 6.18243L2.59551 5.08117ZM7.75898 8.443C8.05912 9.70488 9.19792 10.6437 10.5569 10.6437C10.7318 10.6437 10.9031 10.6282 11.0694 10.5984L7.75898 8.443ZM7.41952 4.00082L9.28217 5.21355C9.66634 5.02403 10.0991 4.91749 10.5569 4.91749C12.1449 4.91749 13.4322 6.19936 13.4322 7.78061C13.4322 7.82518 13.4312 7.8695 13.4292 7.91357L16.1172 9.66372C16.1534 9.6344 16.1893 9.60495 16.2251 9.57537C17.0888 8.86176 17.7785 8.13851 18.2362 7.61619C17.7786 7.09394 17.0889 6.37063 16.2251 5.65693C14.5953 4.31028 12.6079 3.21412 10.5587 3.21412C9.48087 3.21412 8.42013 3.51737 7.41952 4.00082Z" fill="#95AECD"/>
    </g>
    <g id="attention">
      <circle cx="9" cy="9" r="9" fill="#FF603E"/>
      <rect x="8" y="4" width="2" height="7" rx="1" fill="white"/>
      <rect x="8" y="12" width="2" height="2" rx="1" fill="white"/>
    </g>
    <g id="delete">
      <path fill-rule="evenodd" clip-rule="evenodd" d="M0.175736 0.175736C0.410051 -0.0585787 0.78995 -0.0585787 1.02426 0.175736L5.82426 4.97574C6.05858 5.21005 6.05858 5.58995 5.82426 5.82426C5.58995 6.05858 5.21005 6.05858 4.97574 5.82426L0.175736 1.02426C-0.0585787 0.78995 -0.0585787 0.410051 0.175736 0.175736Z" />
      <path fill-rule="evenodd" clip-rule="evenodd" d="M5.82426 0.175736C5.58995 -0.0585787 5.21005 -0.0585787 4.97574 0.175736L0.175736 4.97574C-0.058579 5.21005 -0.058579 5.58995 0.175736 5.82426C0.41005 6.05858 0.789949 6.05858 1.02426 5.82426L5.82426 1.02426C6.05858 0.78995 6.05858 0.410051 5.82426 0.175736Z" />
    </g>
  </defs>
</svg>
