<svg width="20" height="24" fill="none" xmlns="http://www.w3.org/2000/svg"><path fill-rule="evenodd" clip-rule="evenodd" d="M10.984 1.005c0-.555-.447-1.005-1-1.005-.552 0-1 .45-1 1.005v2.317C5.604 3.814 3 6.724 3 10.23v2.78a6.676 6.676 0 01-2.388 5.118A1.742 1.742 0 000 19.455 1.75 1.75 0 001.75 21.2h4.887A3.404 3.404 0 009.984 24a3.404 3.404 0 003.348-2.8h4.918A1.75 1.75 0 0020 19.455c0-.511-.223-.995-.622-1.334A6.674 6.674 0 0117 13.011V10.23c0-3.516-2.62-6.434-6.016-6.912V1.005zm-1 20.985a1.4 1.4 0 01-1.262-.79h2.525c-.225.464-.703.79-1.263.79zm7.592-2.8A8.686 8.686 0 0115 13.01v-2.78c0-2.724-2.23-4.97-5-4.97s-5 2.246-5 4.97v2.78a8.683 8.683 0 01-2.578 6.18h15.154z" fill="#107EFF"/></svg>