<svg width="18" height="16" viewBox="0 0 18 15" fill="none" xmlns="http://www.w3.org/2000/svg">
<path fill-rule="evenodd" clip-rule="evenodd" d="M8.47789 3.02688L4.46918 6.06617C3.94793 6.46136 3.31201 6.67523 2.65819 6.67523H2V8.34406H2.65819C3.31201 8.34406 3.94793 8.55793 4.46918 8.95312L8.47789 11.9924V3.02688ZM3.26185 4.46962C3.0881 4.60135 2.87613 4.67265 2.65819 4.67265H1C0.447715 4.67265 0 5.12094 0 5.67394V9.34535C0 9.89835 0.447716 10.3466 1 10.3466H2.65819C2.87613 10.3466 3.0881 10.4179 3.26185 10.5497L8.87423 14.8048C9.53288 15.3042 10.4779 14.8338 10.4779 14.0065V1.01276C10.4779 0.185537 9.53288 -0.284873 8.87423 0.214493L3.26185 4.46962Z" fill="white"/>
<path fill-rule="evenodd" clip-rule="evenodd" d="M13.984 4.00198C14.1891 3.48857 14.7712 3.23892 15.2839 3.44438C16.8832 4.08519 17.9994 5.67139 17.9994 7.50963C17.9994 9.34786 16.8832 10.9341 15.2839 11.5749C14.7712 11.7803 14.1891 11.5307 13.984 11.0173C13.7788 10.5039 14.0281 9.92109 14.5408 9.71564C15.3848 9.37745 15.9994 8.52491 15.9994 7.50963C15.9994 6.49434 15.3848 5.6418 14.5408 5.30362C14.0281 5.09816 13.7788 4.5154 13.984 4.00198Z" fill="white"/>
<path fill-rule="evenodd" clip-rule="evenodd" d="M11.2776 5.65639C11.4561 5.13309 12.0245 4.85378 12.5472 5.03255C13.5681 5.38176 14.4165 6.30473 14.4165 7.50964C14.4165 8.71455 13.5681 9.63752 12.5472 9.98673C12.0245 10.1655 11.4561 9.88619 11.2776 9.36289C11.0991 8.83958 11.378 8.27044 11.9006 8.09167C12.2759 7.96332 12.4165 7.69667 12.4165 7.50964C12.4165 7.32261 12.2759 7.05596 11.9006 6.92761C11.378 6.74884 11.0991 6.1797 11.2776 5.65639Z" fill="white"/>
</svg>
